<svg width="408" height="430" viewBox="0 0 408 430" fill="none" xmlns="http://www.w3.org/2000/svg">
<g clip-path="url(#clip0_182_32056)">
<path d="M0.412598 379.32H385.053" stroke="#624AC6" stroke-width="2" stroke-miterlimit="10"/>
<path d="M263.306 63.7109H101.525V379.735H263.306V63.7109Z" fill="#191919"/>
<path d="M377.138 216.996C379.973 217.23 382.756 217.894 385.392 218.965C386.307 219.366 387.327 219.456 388.297 219.222C389.535 218.833 390.064 217.873 391.393 215.995C392.62 214.217 393.972 212.528 395.437 210.941C396.956 209.352 397.971 208.293 399.671 207.582C402.395 206.448 405.961 206.606 406.613 207.971C406.902 208.583 406.679 209.559 406.233 209.741C405.788 209.923 405.491 209.443 405.037 209.303C403.501 208.823 399.044 212.843 398.59 213.439C394.381 219.354 396.114 216.748 393.159 221.538C391.261 224.599 390.229 227.329 387.53 227.925C387.156 228.008 386.774 228.049 386.391 228.049C385.962 228.049 381.95 227.577 376.486 226.841" fill="white"/>
<path d="M377.138 216.996C379.973 217.23 382.756 217.894 385.392 218.965C386.307 219.366 387.327 219.456 388.297 219.222C389.535 218.833 390.064 217.873 391.393 215.995C392.62 214.217 393.972 212.528 395.437 210.941C396.956 209.352 397.971 208.293 399.671 207.582C402.395 206.448 405.961 206.606 406.613 207.971C406.902 208.583 406.679 209.559 406.233 209.741C405.788 209.923 405.491 209.443 405.037 209.303C403.501 208.823 399.044 212.843 398.59 213.439C394.381 219.354 396.114 216.748 393.159 221.538C391.261 224.599 390.229 227.329 387.53 227.925C387.156 228.008 386.774 228.049 386.391 228.049C385.962 228.049 381.95 227.577 376.486 226.841" stroke="#624AC6" stroke-width="2" stroke-miterlimit="10"/>
<path d="M263 380.244L263.825 64.2194L376.081 3L386.811 8.79102L385.986 423.263L376.081 427.399L263 380.244Z" fill="url(#paint0_linear_182_32056)"/>
<path d="M280.5 182.5V73.5L357 33V190L280.5 182.5Z" fill="#9D86FF"/>
<path d="M387 8L376 2L376.5 428L387 423.5V8Z" fill="#9D86FF"/>
<path d="M349.586 47.1211L287.531 77.4412L288.117 175.806L350.139 180.273L349.586 47.1211Z" stroke="#624AC6" stroke-width="2" stroke-miterlimit="10"/>
<path d="M262.893 63.7111L376.799 2.07812V428.132L262.893 380.149V63.7111ZM262.893 63.7111H101.938V199.387V379.322L262.893 380.149" stroke="#624AC6" stroke-width="2" stroke-miterlimit="10"/>
<path d="M101.938 379.322H92.8584L94.5092 55.8516H269.909" stroke="#624AC6" stroke-width="2" stroke-miterlimit="10"/>
<path d="M101.938 63.711L82.541 40.5469" stroke="#624AC6" stroke-width="2" stroke-miterlimit="10"/>
<path d="M92.8585 379.322H82.9536V40.9609L280.903 42.6155C280.912 42.6207 280.919 42.6279 280.924 42.6366C280.929 42.6453 280.931 42.6552 280.931 42.6652C280.931 42.6751 280.929 42.685 280.924 42.6937C280.919 42.7024 280.912 42.7096 280.903 42.7148L262.068 64.125" stroke="#624AC6" stroke-width="2" stroke-miterlimit="10"/>
<path d="M281.052 42.6133V54.1953" stroke="#624AC6" stroke-width="2" stroke-miterlimit="10"/>
<path d="M376.799 2.07812L386.704 7.86915V423.168L376.799 428.132" stroke="#624AC6" stroke-width="2" stroke-miterlimit="10"/>
<path d="M364.005 214.162L365.177 213.822C368.809 213.707 371.896 218.232 372.07 223.924C372.243 229.615 369.445 234.331 365.813 234.439L361.24 234.041" fill="white"/>
<path d="M364.005 214.162L365.177 213.822C368.809 213.707 371.896 218.232 372.07 223.924C372.243 229.615 369.445 234.331 365.813 234.439L361.24 234.041" stroke="#624AC6" stroke-width="2" stroke-miterlimit="10"/>
<path d="M125.537 77.5841C125.694 79.2115 126.4 80.7364 127.539 81.9067C128.679 83.077 130.182 83.8227 131.801 84.0204C131.859 84.0204 131.859 84.0949 131.801 84.1031C130.183 84.3005 128.681 85.045 127.542 86.2136C126.403 87.3823 125.695 88.9053 125.537 90.5312C125.537 90.5891 125.462 90.5891 125.454 90.5312C125.295 88.9053 124.588 87.3823 123.449 86.2136C122.31 85.045 120.807 84.3005 119.189 84.1031C119.139 84.1031 119.139 84.0204 119.189 84.0204C120.808 83.8227 122.312 83.077 123.451 81.9067C124.59 80.7364 125.297 79.2115 125.454 77.5841C125.462 77.5345 125.537 77.5345 125.537 77.5841Z" fill="white"/>
<path d="M190.43 131.216C190.537 132.35 191.029 133.412 191.823 134.226C192.618 135.039 193.668 135.554 194.797 135.683C194.797 135.683 194.797 135.733 194.797 135.741C193.675 135.876 192.633 136.39 191.843 137.2C191.054 138.009 190.564 139.065 190.455 140.192C190.455 140.233 190.406 140.233 190.397 140.192C190.289 139.066 189.8 138.012 189.012 137.202C188.224 136.393 187.184 135.877 186.064 135.741V135.683C187.185 135.547 188.227 135.03 189.015 134.219C189.803 133.408 190.291 132.351 190.397 131.224C190.397 131.224 190.43 131.183 190.43 131.216Z" fill="white"/>
<path d="M239.955 98.1261C240.061 99.2597 240.553 100.322 241.348 101.136C242.143 101.949 243.193 102.464 244.321 102.593C244.321 102.593 244.321 102.643 244.321 102.651C243.2 102.786 242.158 103.3 241.368 104.11C240.578 104.919 240.088 105.975 239.98 107.102C239.98 107.144 239.93 107.144 239.922 107.102C239.813 105.977 239.325 104.922 238.537 104.112C237.749 103.303 236.709 102.788 235.588 102.651V102.593C236.71 102.457 237.751 101.94 238.539 101.129C239.327 100.318 239.815 99.2615 239.922 98.1344C239.922 98.1344 239.955 98.093 239.955 98.1261Z" fill="white"/>
<path d="M237.479 211.462C237.585 212.596 238.077 213.658 238.872 214.472C239.667 215.285 240.717 215.8 241.845 215.929C241.845 215.929 241.845 215.979 241.845 215.987C240.724 216.122 239.681 216.636 238.892 217.446C238.102 218.255 237.612 219.311 237.504 220.438C237.504 220.48 237.454 220.48 237.446 220.438C237.337 219.312 236.849 218.258 236.061 217.448C235.273 216.639 234.232 216.123 233.112 215.987V215.929C234.234 215.793 235.275 215.276 236.063 214.465C236.851 213.654 237.339 212.597 237.446 211.47C237.446 211.47 237.479 211.429 237.479 211.462Z" fill="white"/>
<path d="M250.925 255.641C250.998 256.413 251.333 257.137 251.874 257.692C252.414 258.247 253.128 258.601 253.896 258.693C253.896 258.693 253.896 258.735 253.896 258.735C253.128 258.827 252.414 259.181 251.874 259.736C251.333 260.291 250.998 261.015 250.925 261.787H250.883C250.808 261.016 250.473 260.293 249.933 259.738C249.393 259.183 248.68 258.829 247.912 258.735C247.912 258.735 247.912 258.735 247.912 258.693C248.687 258.608 249.41 258.258 249.958 257.702C250.507 257.146 250.848 256.419 250.925 255.641Z" fill="white"/>
<path d="M203.051 79.4297C203.124 80.2019 203.459 80.9258 204 81.481C204.54 82.0363 205.254 82.3896 206.022 82.4824C205.254 82.5751 204.54 82.9285 204 83.4837C203.459 84.039 203.124 84.7628 203.051 85.5351C203.051 85.5351 203.009 85.5351 203.009 85.5351C202.934 84.7634 202.599 84.0404 202.059 83.4854C201.519 82.9304 200.806 82.5766 200.038 82.4824C200.813 82.397 201.536 82.0471 202.084 81.4913C202.633 80.9355 202.974 80.2076 203.051 79.4297Z" fill="white"/>
<path d="M200.756 86.0469C200.621 86.7336 200.724 87.446 201.048 88.0659C201.372 88.6859 201.898 89.1761 202.539 89.4553C202.539 89.4967 202.539 89.4553 202.539 89.4553C201.85 89.3405 201.144 89.4629 200.533 89.8024C199.923 90.1419 199.446 90.6786 199.179 91.325C199.315 90.6382 199.212 89.9258 198.887 89.3059C198.563 88.686 198.037 88.1958 197.396 87.9165C198.085 88.036 198.794 87.9157 199.405 87.5756C200.016 87.2354 200.493 86.696 200.756 86.0469Z" fill="white"/>
<path d="M148.574 182.84C148.668 183.818 149.092 184.735 149.776 185.439C150.461 186.143 151.364 186.592 152.337 186.712C152.337 186.712 152.337 186.753 152.337 186.761C151.364 186.878 150.46 187.324 149.775 188.027C149.091 188.73 148.666 189.647 148.574 190.625C148.574 190.625 148.524 190.625 148.524 190.625C148.429 189.646 148.003 188.729 147.317 188.027C146.631 187.324 145.726 186.877 144.752 186.761V186.712C145.735 186.603 146.651 186.159 147.347 185.454C148.042 184.749 148.475 183.826 148.574 182.84Z" fill="white"/>
<path d="M189.019 205.176C189.113 206.154 189.537 207.071 190.222 207.775C190.906 208.479 191.809 208.928 192.783 209.047C192.783 209.047 192.783 209.089 192.783 209.097C191.81 209.214 190.905 209.66 190.221 210.363C189.536 211.066 189.112 211.983 189.019 212.961H188.969C188.874 211.982 188.449 211.065 187.763 210.363C187.076 209.66 186.171 209.213 185.197 209.097V209.047C186.18 208.939 187.096 208.495 187.792 207.79C188.488 207.085 188.921 206.162 189.019 205.176Z" fill="white"/>
<path d="M161.781 284.594C161.875 285.572 162.299 286.489 162.983 287.193C163.668 287.897 164.571 288.346 165.544 288.465C165.544 288.465 165.544 288.507 165.544 288.515C164.571 288.632 163.667 289.078 162.982 289.781C162.298 290.484 161.874 291.401 161.781 292.379C161.781 292.379 161.731 292.379 161.731 292.379C161.636 291.4 161.21 290.483 160.524 289.78C159.838 289.078 158.933 288.631 157.959 288.515C157.959 288.515 157.959 288.465 157.959 288.465C158.942 288.357 159.858 287.913 160.554 287.208C161.249 286.503 161.682 285.58 161.781 284.594Z" fill="white"/>
<path d="M195.622 333.406C195.716 334.385 196.141 335.301 196.825 336.005C197.51 336.709 198.413 337.158 199.386 337.278C199.386 337.278 199.386 337.278 199.386 337.328C198.413 337.444 197.509 337.891 196.824 338.594C196.139 339.297 195.715 340.213 195.622 341.191C195.622 341.191 195.573 341.191 195.573 341.191C195.478 340.212 195.052 339.296 194.366 338.593C193.68 337.89 192.775 337.444 191.801 337.328V337.278C192.784 337.169 193.7 336.725 194.396 336.02C195.091 335.316 195.524 334.393 195.622 333.406Z" fill="white"/>
<path d="M186.543 302.797C186.637 303.775 187.061 304.692 187.746 305.396C188.43 306.1 189.333 306.549 190.307 306.669C190.307 306.669 190.307 306.71 190.307 306.718C189.333 306.835 188.429 307.281 187.745 307.984C187.06 308.687 186.636 309.604 186.543 310.582C186.543 310.582 186.493 310.582 186.493 310.582C186.398 309.603 185.973 308.686 185.286 307.984C184.6 307.281 183.695 306.834 182.721 306.718V306.669C183.704 306.56 184.62 306.116 185.316 305.411C186.012 304.706 186.445 303.783 186.543 302.797Z" fill="white"/>
<path d="M132.891 263.914C132.985 264.892 133.409 265.809 134.094 266.513C134.778 267.217 135.681 267.666 136.655 267.786C136.655 267.786 136.655 267.827 136.655 267.835C135.682 267.952 134.777 268.399 134.093 269.102C133.408 269.804 132.984 270.721 132.891 271.699H132.841C132.747 270.72 132.321 269.804 131.635 269.101C130.949 268.398 130.043 267.952 129.069 267.835V267.786C130.052 267.677 130.968 267.233 131.664 266.528C132.36 265.823 132.793 264.901 132.891 263.914Z" fill="white"/>
<path d="M245.972 351.605C246.066 352.584 246.49 353.501 247.175 354.205C247.859 354.909 248.763 355.357 249.736 355.477C249.736 355.477 249.736 355.477 249.736 355.527C248.763 355.643 247.859 356.09 247.174 356.793C246.489 357.496 246.065 358.412 245.972 359.39H245.922C245.828 358.412 245.402 357.495 244.716 356.792C244.03 356.089 243.125 355.643 242.15 355.527C242.15 355.527 242.15 355.477 242.15 355.477C243.134 355.368 244.049 354.924 244.745 354.22C245.441 353.515 245.874 352.592 245.972 351.605Z" fill="white"/>
<path d="M115.27 365.519C117.696 365.507 119.653 363.642 119.642 361.353C119.631 359.064 117.657 357.218 115.232 357.229C112.806 357.241 110.849 359.106 110.86 361.395C110.871 363.684 112.845 365.53 115.27 365.519Z" fill="white"/>
<path d="M131.052 365.48C133.477 365.468 135.434 363.603 135.423 361.314C135.413 359.025 133.438 357.179 131.013 357.19C128.588 357.202 126.63 359.067 126.641 361.356C126.652 363.645 128.627 365.491 131.052 365.48Z" fill="white"/>
<path d="M116.02 359.817C116.018 359.388 115.669 359.041 115.24 359.043C114.812 359.045 114.466 359.395 114.468 359.825L114.483 362.927C114.485 363.356 114.834 363.703 115.262 363.701C115.691 363.699 116.036 363.349 116.034 362.919L116.02 359.817Z" fill="#191919"/>
<path d="M131.801 359.766C131.799 359.337 131.45 358.99 131.021 358.992C130.593 358.994 130.247 359.344 130.249 359.774L130.264 362.876C130.266 363.306 130.615 363.652 131.043 363.65C131.472 363.648 131.818 363.298 131.816 362.869L131.801 359.766Z" fill="#191919"/>
<path d="M172.227 353.933C174.652 353.921 176.609 352.056 176.598 349.767C176.587 347.478 174.613 345.632 172.188 345.643C169.762 345.655 167.805 347.52 167.816 349.809C167.827 352.098 169.801 353.944 172.227 353.933Z" fill="white"/>
<path d="M188.008 353.89C190.433 353.878 192.39 352.013 192.379 349.724C192.369 347.435 190.394 345.589 187.969 345.6C185.544 345.612 183.586 347.477 183.597 349.766C183.608 352.055 185.583 353.901 188.008 353.89Z" fill="white"/>
<path d="M172.975 348.231C172.973 347.802 172.624 347.455 172.196 347.457C171.767 347.459 171.422 347.809 171.424 348.239L171.438 351.341C171.44 351.77 171.789 352.117 172.218 352.115C172.646 352.113 172.992 351.763 172.99 351.334L172.975 348.231Z" fill="#191919"/>
<path d="M188.757 348.18C188.755 347.751 188.406 347.404 187.977 347.406C187.549 347.409 187.203 347.758 187.205 348.188L187.22 351.29C187.222 351.72 187.571 352.066 187.999 352.064C188.428 352.062 188.774 351.712 188.772 351.283L188.757 348.18Z" fill="#191919"/>
<path d="M126.824 317.53C129.249 317.519 131.206 315.654 131.195 313.365C131.184 311.076 129.21 309.23 126.785 309.241C124.36 309.252 122.402 311.117 122.413 313.406C122.424 315.695 124.399 317.542 126.824 317.53Z" fill="white"/>
<path d="M142.605 317.491C145.03 317.48 146.987 315.615 146.977 313.326C146.966 311.037 144.991 309.19 142.566 309.202C140.141 309.213 138.184 311.078 138.194 313.367C138.205 315.656 140.18 317.503 142.605 317.491Z" fill="white"/>
<path d="M127.573 311.829C127.571 311.399 127.222 311.053 126.793 311.055C126.365 311.057 126.019 311.407 126.021 311.836L126.035 314.939C126.037 315.368 126.387 315.715 126.815 315.713C127.244 315.71 127.589 315.361 127.587 314.931L127.573 311.829Z" fill="#191919"/>
<path d="M143.354 311.786C143.352 311.356 143.003 311.01 142.574 311.012C142.146 311.014 141.8 311.364 141.802 311.793L141.817 314.896C141.819 315.325 142.168 315.672 142.596 315.67C143.025 315.668 143.37 315.318 143.368 314.888L143.354 311.786Z" fill="#191919"/>
<path d="M219.27 284.433C221.695 284.421 223.652 282.556 223.641 280.267C223.63 277.978 221.656 276.132 219.231 276.143C216.805 276.155 214.848 278.02 214.859 280.309C214.87 282.598 216.844 284.444 219.27 284.433Z" fill="white"/>
<path d="M235.051 284.394C237.476 284.382 239.433 282.517 239.422 280.228C239.412 277.939 237.437 276.093 235.012 276.104C232.587 276.116 230.629 277.981 230.64 280.27C230.651 282.559 232.626 284.405 235.051 284.394Z" fill="white"/>
<path d="M220.018 278.731C220.016 278.302 219.667 277.955 219.239 277.957C218.81 277.959 218.465 278.309 218.467 278.739L218.481 281.841C218.483 282.27 218.832 282.617 219.261 282.615C219.689 282.613 220.035 282.263 220.033 281.834L220.018 278.731Z" fill="#191919"/>
<path d="M235.8 278.688C235.798 278.259 235.449 277.912 235.02 277.914C234.592 277.916 234.246 278.266 234.248 278.696L234.263 281.798C234.265 282.227 234.614 282.574 235.042 282.572C235.471 282.57 235.817 282.22 235.815 281.791L235.8 278.688Z" fill="#191919"/>
<path d="M146.628 235.628C149.053 235.617 151.01 233.752 150.999 231.463C150.989 229.174 149.014 227.327 146.589 227.339C144.164 227.35 142.206 229.215 142.217 231.504C142.228 233.793 144.203 235.639 146.628 235.628Z" fill="white"/>
<path d="M162.409 235.589C164.834 235.577 166.792 233.713 166.781 231.424C166.77 229.134 164.795 227.288 162.37 227.3C159.945 227.311 157.988 229.176 157.998 231.465C158.009 233.754 159.984 235.6 162.409 235.589Z" fill="white"/>
<path d="M148.202 229.93C148.2 229.501 147.851 229.154 147.423 229.156C146.994 229.159 146.648 229.508 146.65 229.938L146.665 233.04C146.667 233.47 147.016 233.816 147.444 233.814C147.873 233.812 148.219 233.462 148.217 233.033L148.202 229.93Z" fill="#191919"/>
<path d="M163.984 229.88C163.982 229.45 163.633 229.104 163.204 229.106C162.776 229.108 162.43 229.458 162.432 229.887L162.446 232.989C162.448 233.419 162.797 233.765 163.226 233.763C163.654 233.761 164 233.411 163.998 232.982L163.984 229.88Z" fill="#191919"/>
<path d="M148.764 100.937C149.536 97.4748 151.354 94.3352 153.969 91.9448C156.585 89.5544 159.871 88.029 163.382 87.576C161.26 86.2337 158.872 85.372 156.384 85.0512C153.895 84.7304 151.367 84.9583 148.976 85.7188C146.584 86.4793 144.388 87.7542 142.539 89.4543C140.691 91.1544 139.235 93.2386 138.274 95.5613C137.313 97.884 136.869 100.389 136.975 102.901C137.08 105.414 137.732 107.873 138.884 110.106C140.037 112.34 141.662 114.294 143.646 115.833C145.631 117.371 147.926 118.456 150.373 119.013C152.322 119.455 154.334 119.55 156.316 119.294C153.328 117.383 151 114.595 149.648 111.311C148.297 108.026 147.988 104.404 148.764 100.937Z" fill="#F9F6D9"/>
<path d="M193.971 145.612C194.427 145.612 194.797 145.241 194.797 144.784C194.797 144.327 194.427 143.957 193.971 143.957C193.516 143.957 193.146 144.327 193.146 144.784C193.146 145.241 193.516 145.612 193.971 145.612Z" fill="white"/>
<path d="M170.034 186.147C170.49 186.147 170.86 185.776 170.86 185.319C170.86 184.863 170.49 184.492 170.034 184.492C169.579 184.492 169.209 184.863 169.209 185.319C169.209 185.776 169.579 186.147 170.034 186.147Z" fill="white"/>
<path d="M243.496 239.92C243.952 239.92 244.321 239.55 244.321 239.093C244.321 238.636 243.952 238.266 243.496 238.266C243.04 238.266 242.67 238.636 242.67 239.093C242.67 239.55 243.04 239.92 243.496 239.92Z" fill="white"/>
<path d="M158.479 158.022C158.935 158.022 159.304 157.651 159.304 157.194C159.304 156.738 158.935 156.367 158.479 156.367C158.023 156.367 157.653 156.738 157.653 157.194C157.653 157.651 158.023 158.022 158.479 158.022Z" fill="white"/>
<path d="M216.258 205.174C216.713 205.174 217.083 204.804 217.083 204.347C217.083 203.89 216.713 203.52 216.258 203.52C215.802 203.52 215.432 203.89 215.432 204.347C215.432 204.804 215.802 205.174 216.258 205.174Z" fill="white"/>
<path d="M171.685 210.139C172.141 210.139 172.511 209.769 172.511 209.312C172.511 208.855 172.141 208.484 171.685 208.484C171.229 208.484 170.86 208.855 170.86 209.312C170.86 209.769 171.229 210.139 171.685 210.139Z" fill="white"/>
<path d="M191.908 190.284C192.136 190.284 192.321 190.099 192.321 189.871C192.321 189.642 192.136 189.457 191.908 189.457C191.68 189.457 191.495 189.642 191.495 189.871C191.495 190.099 191.68 190.284 191.908 190.284Z" fill="white"/>
<path d="M198.511 175.394C198.739 175.394 198.924 175.209 198.924 174.98C198.924 174.752 198.739 174.566 198.511 174.566C198.283 174.566 198.098 174.752 198.098 174.98C198.098 175.209 198.283 175.394 198.511 175.394Z" fill="white"/>
<path d="M167.146 211.796C167.374 211.796 167.558 211.611 167.558 211.382C167.558 211.154 167.374 210.969 167.146 210.969C166.918 210.969 166.733 211.154 166.733 211.382C166.733 211.611 166.918 211.796 167.146 211.796Z" fill="white"/>
<path d="M223.274 246.542C223.501 246.542 223.686 246.357 223.686 246.128C223.686 245.9 223.501 245.715 223.274 245.715C223.046 245.715 222.861 245.9 222.861 246.128C222.861 246.357 223.046 246.542 223.274 246.542Z" fill="white"/>
<path d="M174.574 203.523C174.802 203.523 174.987 203.337 174.987 203.109C174.987 202.881 174.802 202.695 174.574 202.695C174.346 202.695 174.162 202.881 174.162 203.109C174.162 203.337 174.346 203.523 174.574 203.523Z" fill="white"/>
<path d="M182.003 210.14C182.231 210.14 182.416 209.955 182.416 209.726C182.416 209.498 182.231 209.312 182.003 209.312C181.775 209.312 181.59 209.498 181.59 209.726C181.59 209.955 181.775 210.14 182.003 210.14Z" fill="white"/>
<path d="M173.749 236.612C173.977 236.612 174.161 236.427 174.161 236.199C174.161 235.97 173.977 235.785 173.749 235.785C173.521 235.785 173.336 235.97 173.336 236.199C173.336 236.427 173.521 236.612 173.749 236.612Z" fill="white"/>
<path d="M191.908 227.511C192.136 227.511 192.321 227.326 192.321 227.097C192.321 226.869 192.136 226.684 191.908 226.684C191.68 226.684 191.495 226.869 191.495 227.097C191.495 227.326 191.68 227.511 191.908 227.511Z" fill="white"/>
<path d="M159.717 244.058C159.945 244.058 160.13 243.873 160.13 243.644C160.13 243.416 159.945 243.23 159.717 243.23C159.489 243.23 159.304 243.416 159.304 243.644C159.304 243.873 159.489 244.058 159.717 244.058Z" fill="white"/>
<path d="M154.764 103.421C154.992 103.421 155.177 103.236 155.177 103.007C155.177 102.779 154.992 102.594 154.764 102.594C154.536 102.594 154.352 102.779 154.352 103.007C154.352 103.236 154.536 103.421 154.764 103.421Z" fill="white"/>
<path d="M163.844 119.14C164.072 119.14 164.257 118.955 164.257 118.726C164.257 118.498 164.072 118.312 163.844 118.312C163.616 118.312 163.431 118.498 163.431 118.726C163.431 118.955 163.616 119.14 163.844 119.14Z" fill="white"/>
<path d="M177.876 106.73C178.104 106.73 178.288 106.544 178.288 106.316C178.288 106.088 178.104 105.902 177.876 105.902C177.648 105.902 177.463 106.088 177.463 106.316C177.463 106.544 177.648 106.73 177.876 106.73Z" fill="white"/>
<path d="M185.304 115.003C185.532 115.003 185.717 114.818 185.717 114.589C185.717 114.361 185.532 114.176 185.304 114.176C185.076 114.176 184.892 114.361 184.892 114.589C184.892 114.818 185.076 115.003 185.304 115.003Z" fill="white"/>
<path d="M191.908 98.4562C192.136 98.4562 192.321 98.271 192.321 98.0426C192.321 97.8141 192.136 97.6289 191.908 97.6289C191.68 97.6289 191.495 97.8141 191.495 98.0426C191.495 98.271 191.68 98.4562 191.908 98.4562Z" fill="white"/>
<path d="M215.845 86.8742C216.073 86.8742 216.258 86.689 216.258 86.4605C216.258 86.2321 216.073 86.0469 215.845 86.0469C215.617 86.0469 215.432 86.2321 215.432 86.4605C215.432 86.689 215.617 86.8742 215.845 86.8742Z" fill="white"/>
<path d="M229.051 105.073C229.279 105.073 229.464 104.888 229.464 104.66C229.464 104.431 229.279 104.246 229.051 104.246C228.823 104.246 228.639 104.431 228.639 104.66C228.639 104.888 228.823 105.073 229.051 105.073Z" fill="white"/>
<path d="M217.495 117.484C217.723 117.484 217.908 117.298 217.908 117.07C217.908 116.841 217.723 116.656 217.495 116.656C217.267 116.656 217.083 116.841 217.083 117.07C217.083 117.298 217.267 117.484 217.495 117.484Z" fill="white"/>
<path d="M233.178 85.2179C233.406 85.2179 233.591 85.0327 233.591 84.8043C233.591 84.5758 233.406 84.3906 233.178 84.3906C232.95 84.3906 232.766 84.5758 232.766 84.8043C232.766 85.0327 232.95 85.2179 233.178 85.2179Z" fill="white"/>
<path d="M252.988 71.1554C253.216 71.1554 253.401 70.9702 253.401 70.7418C253.401 70.5133 253.216 70.3281 252.988 70.3281C252.76 70.3281 252.575 70.5133 252.575 70.7418C252.575 70.9702 252.76 71.1554 252.988 71.1554Z" fill="white"/>
<path d="M219.146 67.8468C219.374 67.8468 219.559 67.6616 219.559 67.4332C219.559 67.2047 219.374 67.0195 219.146 67.0195C218.918 67.0195 218.733 67.2047 218.733 67.4332C218.733 67.6616 218.918 67.8468 219.146 67.8468Z" fill="white"/>
<path d="M189.432 76.9445C189.66 76.9445 189.844 76.7593 189.844 76.5308C189.844 76.3024 189.66 76.1172 189.432 76.1172C189.204 76.1172 189.019 76.3024 189.019 76.5308C189.019 76.7593 189.204 76.9445 189.432 76.9445Z" fill="white"/>
<path d="M152.288 72.8078C152.516 72.8078 152.701 72.6226 152.701 72.3941C152.701 72.1657 152.516 71.9805 152.288 71.9805C152.06 71.9805 151.875 72.1657 151.875 72.3941C151.875 72.6226 152.06 72.8078 152.288 72.8078Z" fill="white"/>
<path d="M117.621 102.593C117.849 102.593 118.033 102.408 118.033 102.179C118.033 101.951 117.849 101.766 117.621 101.766C117.393 101.766 117.208 101.951 117.208 102.179C117.208 102.408 117.393 102.593 117.621 102.593Z" fill="white"/>
<path d="M107.716 81.0812C107.944 81.0812 108.129 80.896 108.129 80.6676C108.129 80.4391 107.944 80.2539 107.716 80.2539C107.488 80.2539 107.303 80.4391 107.303 80.6676C107.303 80.896 107.488 81.0812 107.716 81.0812Z" fill="white"/>
<path d="M125.049 67.0187C125.277 67.0187 125.462 66.8335 125.462 66.6051C125.462 66.3766 125.277 66.1914 125.049 66.1914C124.821 66.1914 124.637 66.3766 124.637 66.6051C124.637 66.8335 124.821 67.0187 125.049 67.0187Z" fill="white"/>
<path d="M117.621 130.722C117.849 130.722 118.033 130.537 118.033 130.308C118.033 130.08 117.849 129.895 117.621 129.895C117.393 129.895 117.208 130.08 117.208 130.308C117.208 130.537 117.393 130.722 117.621 130.722Z" fill="white"/>
<path d="M140.733 143.956C140.96 143.956 141.145 143.771 141.145 143.543C141.145 143.314 140.96 143.129 140.733 143.129C140.505 143.129 140.32 143.314 140.32 143.543C140.32 143.771 140.505 143.956 140.733 143.956Z" fill="white"/>
<path d="M112.669 166.292C112.896 166.292 113.081 166.107 113.081 165.878C113.081 165.65 112.896 165.465 112.669 165.465C112.441 165.465 112.256 165.65 112.256 165.878C112.256 166.107 112.441 166.292 112.669 166.292Z" fill="white"/>
<path d="M148.986 180.359C149.214 180.359 149.399 180.173 149.399 179.945C149.399 179.716 149.214 179.531 148.986 179.531C148.759 179.531 148.574 179.716 148.574 179.945C148.574 180.173 148.759 180.359 148.986 180.359Z" fill="white"/>
<path d="M185.304 262.257C185.532 262.257 185.717 262.072 185.717 261.843C185.717 261.615 185.532 261.43 185.304 261.43C185.076 261.43 184.892 261.615 184.892 261.843C184.892 262.072 185.076 262.257 185.304 262.257Z" fill="white"/>
<path d="M212.543 298.659C212.771 298.659 212.956 298.474 212.956 298.246C212.956 298.017 212.771 297.832 212.543 297.832C212.315 297.832 212.13 298.017 212.13 298.246C212.13 298.474 212.315 298.659 212.543 298.659Z" fill="white"/>
<path d="M204.289 241.577C204.517 241.577 204.701 241.392 204.701 241.164C204.701 240.935 204.517 240.75 204.289 240.75C204.061 240.75 203.876 240.935 203.876 241.164C203.876 241.392 204.061 241.577 204.289 241.577Z" fill="white"/>
<path d="M248.861 205.175C249.089 205.175 249.274 204.99 249.274 204.761C249.274 204.533 249.089 204.348 248.861 204.348C248.633 204.348 248.448 204.533 248.448 204.761C248.448 204.99 248.633 205.175 248.861 205.175Z" fill="white"/>
<path d="M152.288 208.484C152.516 208.484 152.701 208.298 152.701 208.07C152.701 207.841 152.516 207.656 152.288 207.656C152.06 207.656 151.875 207.841 151.875 208.07C151.875 208.298 152.06 208.484 152.288 208.484Z" fill="white"/>
<path d="M111.843 150.573C112.071 150.573 112.256 150.388 112.256 150.16C112.256 149.931 112.071 149.746 111.843 149.746C111.615 149.746 111.43 149.931 111.43 150.16C111.43 150.388 111.615 150.573 111.843 150.573Z" fill="white"/>
<path d="M128.351 153.058C128.579 153.058 128.764 152.873 128.764 152.644C128.764 152.416 128.579 152.23 128.351 152.23C128.123 152.23 127.938 152.416 127.938 152.644C127.938 152.873 128.123 153.058 128.351 153.058Z" fill="white"/>
<path d="M243.909 127.409C244.137 127.409 244.322 127.224 244.322 126.996C244.322 126.767 244.137 126.582 243.909 126.582C243.681 126.582 243.496 126.767 243.496 126.996C243.496 127.224 243.681 127.409 243.909 127.409Z" fill="white"/>
<path d="M254.639 138.167C254.867 138.167 255.051 137.982 255.051 137.753C255.051 137.525 254.867 137.34 254.639 137.34C254.411 137.34 254.226 137.525 254.226 137.753C254.226 137.982 254.411 138.167 254.639 138.167Z" fill="white"/>
<path d="M224.099 181.183C224.327 181.183 224.511 180.998 224.511 180.769C224.511 180.541 224.327 180.355 224.099 180.355C223.871 180.355 223.686 180.541 223.686 180.769C223.686 180.998 223.871 181.183 224.099 181.183Z" fill="white"/>
<path d="M239.781 190.284C240.009 190.284 240.194 190.099 240.194 189.871C240.194 189.642 240.009 189.457 239.781 189.457C239.553 189.457 239.369 189.642 239.369 189.871C239.369 190.099 239.553 190.284 239.781 190.284Z" fill="white"/>
<path d="M243.909 169.601C244.137 169.601 244.322 169.416 244.322 169.187C244.322 168.959 244.137 168.773 243.909 168.773C243.681 168.773 243.496 168.959 243.496 169.187C243.496 169.416 243.681 169.601 243.909 169.601Z" fill="white"/>
<path d="M245.559 156.366C245.787 156.366 245.972 156.181 245.972 155.953C245.972 155.724 245.787 155.539 245.559 155.539C245.331 155.539 245.146 155.724 245.146 155.953C245.146 156.181 245.331 156.366 245.559 156.366Z" fill="white"/>
<path d="M233.178 143.956C233.406 143.956 233.591 143.771 233.591 143.543C233.591 143.314 233.406 143.129 233.178 143.129C232.95 143.129 232.766 143.314 232.766 143.543C232.766 143.771 232.95 143.956 233.178 143.956Z" fill="white"/>
<path d="M226.575 163.812C226.803 163.812 226.988 163.626 226.988 163.398C226.988 163.17 226.803 162.984 226.575 162.984C226.347 162.984 226.162 163.17 226.162 163.398C226.162 163.626 226.347 163.812 226.575 163.812Z" fill="white"/>
<path d="M210.892 150.573C211.12 150.573 211.305 150.388 211.305 150.16C211.305 149.931 211.12 149.746 210.892 149.746C210.664 149.746 210.479 149.931 210.479 150.16C210.479 150.388 210.664 150.573 210.892 150.573Z" fill="white"/>
<path d="M169.622 144.784C169.85 144.784 170.034 144.599 170.034 144.371C170.034 144.142 169.85 143.957 169.622 143.957C169.394 143.957 169.209 144.142 169.209 144.371C169.209 144.599 169.394 144.784 169.622 144.784Z" fill="white"/>
<path d="M178.701 158.847C178.929 158.847 179.114 158.662 179.114 158.433C179.114 158.205 178.929 158.02 178.701 158.02C178.473 158.02 178.289 158.205 178.289 158.433C178.289 158.662 178.473 158.847 178.701 158.847Z" fill="white"/>
<path d="M151.463 157.194C151.69 157.194 151.875 157.009 151.875 156.781C151.875 156.552 151.69 156.367 151.463 156.367C151.235 156.367 151.05 156.552 151.05 156.781C151.05 157.009 151.235 157.194 151.463 157.194Z" fill="white"/>
<path d="M112.669 194.421C112.896 194.421 113.081 194.236 113.081 194.007C113.081 193.779 112.896 193.594 112.669 193.594C112.441 193.594 112.256 193.779 112.256 194.007C112.256 194.236 112.441 194.421 112.669 194.421Z" fill="white"/>
<path d="M115.97 187.804C116.198 187.804 116.383 187.619 116.383 187.39C116.383 187.162 116.198 186.977 115.97 186.977C115.742 186.977 115.557 187.162 115.557 187.39C115.557 187.619 115.742 187.804 115.97 187.804Z" fill="white"/>
<path d="M117.621 174.566C117.849 174.566 118.033 174.38 118.033 174.152C118.033 173.923 117.849 173.738 117.621 173.738C117.393 173.738 117.208 173.923 117.208 174.152C117.208 174.38 117.393 174.566 117.621 174.566Z" fill="white"/>
<path d="M137.431 184.495C137.659 184.495 137.843 184.31 137.843 184.082C137.843 183.853 137.659 183.668 137.431 183.668C137.203 183.668 137.018 183.853 137.018 184.082C137.018 184.31 137.203 184.495 137.431 184.495Z" fill="white"/>
<path d="M125.049 203.523C125.277 203.523 125.462 203.337 125.462 203.109C125.462 202.881 125.277 202.695 125.049 202.695C124.821 202.695 124.637 202.881 124.637 203.109C124.637 203.337 124.821 203.523 125.049 203.523Z" fill="white"/>
<path d="M144.034 218.413C144.262 218.413 144.447 218.228 144.447 218C144.447 217.771 144.262 217.586 144.034 217.586C143.806 217.586 143.621 217.771 143.621 218C143.621 218.228 143.806 218.413 144.034 218.413Z" fill="white"/>
<path d="M117.621 232.476C117.849 232.476 118.033 232.291 118.033 232.062C118.033 231.834 117.849 231.648 117.621 231.648C117.393 231.648 117.208 231.834 117.208 232.062C117.208 232.291 117.393 232.476 117.621 232.476Z" fill="white"/>
<path d="M114.319 215.929C114.547 215.929 114.732 215.744 114.732 215.515C114.732 215.287 114.547 215.102 114.319 215.102C114.092 215.102 113.907 215.287 113.907 215.515C113.907 215.744 114.092 215.929 114.319 215.929Z" fill="white"/>
<path d="M130.002 222.55C130.23 222.55 130.415 222.365 130.415 222.136C130.415 221.908 130.23 221.723 130.002 221.723C129.774 221.723 129.589 221.908 129.589 222.136C129.589 222.365 129.774 222.55 130.002 222.55Z" fill="white"/>
<path d="M132.478 244.886C132.706 244.886 132.891 244.701 132.891 244.472C132.891 244.244 132.706 244.059 132.478 244.059C132.25 244.059 132.065 244.244 132.065 244.472C132.065 244.701 132.25 244.886 132.478 244.886Z" fill="white"/>
<path d="M115.97 256.468C116.198 256.468 116.383 256.283 116.383 256.054C116.383 255.826 116.198 255.641 115.97 255.641C115.742 255.641 115.557 255.826 115.557 256.054C115.557 256.283 115.742 256.468 115.97 256.468Z" fill="white"/>
<path d="M144.859 261.433C145.087 261.433 145.272 261.248 145.272 261.019C145.272 260.791 145.087 260.605 144.859 260.605C144.632 260.605 144.447 260.791 144.447 261.019C144.447 261.248 144.632 261.433 144.859 261.433Z" fill="white"/>
<path d="M235.654 368.152C235.882 368.152 236.067 367.966 236.067 367.738C236.067 367.509 235.882 367.324 235.654 367.324C235.426 367.324 235.242 367.509 235.242 367.738C235.242 367.966 235.426 368.152 235.654 368.152Z" fill="white"/>
<path d="M149.812 350.78C150.04 350.78 150.224 350.595 150.224 350.367C150.224 350.138 150.04 349.953 149.812 349.953C149.584 349.953 149.399 350.138 149.399 350.367C149.399 350.595 149.584 350.78 149.812 350.78Z" fill="white"/>
<path d="M163.844 366.499C164.072 366.499 164.257 366.314 164.257 366.086C164.257 365.857 164.072 365.672 163.844 365.672C163.616 365.672 163.431 365.857 163.431 366.086C163.431 366.314 163.616 366.499 163.844 366.499Z" fill="white"/>
<path d="M222.448 350.78C222.676 350.78 222.861 350.595 222.861 350.367C222.861 350.138 222.676 349.953 222.448 349.953C222.22 349.953 222.035 350.138 222.035 350.367C222.035 350.595 222.22 350.78 222.448 350.78Z" fill="white"/>
<path d="M237.305 330.925C237.533 330.925 237.718 330.74 237.718 330.511C237.718 330.283 237.533 330.098 237.305 330.098C237.077 330.098 236.893 330.283 236.893 330.511C236.893 330.74 237.077 330.925 237.305 330.925Z" fill="white"/>
<path d="M246.385 316.034C246.613 316.034 246.798 315.849 246.798 315.621C246.798 315.392 246.613 315.207 246.385 315.207C246.157 315.207 245.972 315.392 245.972 315.621C245.972 315.849 246.157 316.034 246.385 316.034Z" fill="white"/>
<path d="M248.036 292.042C248.264 292.042 248.448 291.857 248.448 291.628C248.448 291.4 248.264 291.215 248.036 291.215C247.808 291.215 247.623 291.4 247.623 291.628C247.623 291.857 247.808 292.042 248.036 292.042Z" fill="white"/>
<path d="M107.716 325.96C107.944 325.96 108.129 325.775 108.129 325.546C108.129 325.318 107.944 325.133 107.716 325.133C107.488 325.133 107.303 325.318 107.303 325.546C107.303 325.775 107.488 325.96 107.716 325.96Z" fill="white"/>
<path d="M114.319 294.523C114.547 294.523 114.732 294.337 114.732 294.109C114.732 293.881 114.547 293.695 114.319 293.695C114.092 293.695 113.907 293.881 113.907 294.109C113.907 294.337 114.092 294.523 114.319 294.523Z" fill="white"/>
<path d="M210.892 362.362C211.12 362.362 211.305 362.177 211.305 361.949C211.305 361.72 211.12 361.535 210.892 361.535C210.664 361.535 210.479 361.72 210.479 361.949C210.479 362.177 210.664 362.362 210.892 362.362Z" fill="white"/>
<path d="M149.812 340.023C150.04 340.023 150.224 339.837 150.224 339.609C150.224 339.381 150.04 339.195 149.812 339.195C149.584 339.195 149.399 339.381 149.399 339.609C149.399 339.837 149.584 340.023 149.812 340.023Z" fill="white"/>
<path d="M187.781 324.304C188.009 324.304 188.194 324.119 188.194 323.89C188.194 323.662 188.009 323.477 187.781 323.477C187.553 323.477 187.368 323.662 187.368 323.89C187.368 324.119 187.553 324.304 187.781 324.304Z" fill="white"/>
<path d="M163.844 319.343C164.072 319.343 164.257 319.158 164.257 318.929C164.257 318.701 164.072 318.516 163.844 318.516C163.616 318.516 163.431 318.701 163.431 318.929C163.431 319.158 163.616 319.343 163.844 319.343Z" fill="white"/>
<path d="M205.94 263.085C206.167 263.085 206.352 262.9 206.352 262.671C206.352 262.443 206.167 262.258 205.94 262.258C205.712 262.258 205.527 262.443 205.527 262.671C205.527 262.9 205.712 263.085 205.94 263.085Z" fill="white"/>
<path d="M233.178 305.277C233.406 305.277 233.591 305.091 233.591 304.863C233.591 304.634 233.406 304.449 233.178 304.449C232.95 304.449 232.766 304.634 232.766 304.863C232.766 305.091 232.95 305.277 233.178 305.277Z" fill="white"/>
<path d="M221.623 319.343C221.851 319.343 222.035 319.158 222.035 318.929C222.035 318.701 221.851 318.516 221.623 318.516C221.395 318.516 221.21 318.701 221.21 318.929C221.21 319.158 221.395 319.343 221.623 319.343Z" fill="white"/>
<path d="M140.733 258.948C140.96 258.948 141.145 258.763 141.145 258.535C141.145 258.306 140.96 258.121 140.733 258.121C140.505 258.121 140.32 258.306 140.32 258.535C140.32 258.763 140.505 258.948 140.733 258.948Z" fill="white"/>
<path d="M361.54 234.204C365.171 234.092 367.973 229.384 367.797 223.689C367.622 217.994 364.535 213.469 360.904 213.582C357.272 213.694 354.471 218.402 354.647 224.097C354.822 229.791 357.908 234.317 361.54 234.204Z" fill="white" stroke="#624AC6" stroke-width="2" stroke-miterlimit="10"/>
<path d="M363.904 256.603C366.565 256.521 368.618 253.07 368.489 248.896C368.361 244.722 366.099 241.405 363.438 241.487C360.777 241.57 358.724 245.02 358.853 249.195C358.982 253.369 361.243 256.686 363.904 256.603Z" fill="white" stroke="#624AC6" stroke-width="2" stroke-miterlimit="10"/>
<path d="M364.064 224.203C364.146 227.041 362.751 229.39 360.944 229.448C359.136 229.506 357.592 227.248 357.51 224.41C357.427 221.573 358.814 219.223 360.622 219.165C362.429 219.107 364.006 221.374 364.064 224.203Z" fill="white" stroke="#624AC6" stroke-width="2" stroke-miterlimit="10"/>
<path d="M290.373 171.146C286.929 175.008 284.033 179.321 281.764 183.967C278.91 189.822 277.123 196.137 276.484 202.622" fill="#624AC6"/>
<path d="M283.159 175.179C280.044 179.103 277.298 183.304 274.955 187.73C271.92 193.459 269.545 199.514 267.877 205.779" fill="#624AC6"/>
<path d="M285.686 164.642C281.525 169.002 277.777 173.735 274.491 178.782C270.23 185.308 266.726 192.296 264.046 199.612" fill="#624AC6"/>
<g clip-path="url(#clip1_182_32056)">
<path d="M332.316 341.338L297.502 343.881L295.877 321.383L321.294 316.302C321.968 320.98 323.995 325.36 327.131 328.911C329.666 331.779 331.335 335.3 331.948 339.07L332.316 341.338Z" fill="#191919"/>
<path d="M298.324 344.377C300.339 346.484 302.078 348.09 303.288 349.156C305.499 351.109 306.499 351.762 307.758 353.454C308.438 354.373 310.875 357.664 309.799 359.259C309.119 360.255 307.273 360.256 306.878 360.304C305.366 360.318 304.866 359.631 303.45 359.867C303.073 359.893 302.705 359.996 302.369 360.17C302.034 360.343 301.738 360.584 301.5 360.876C300.674 362.145 301.891 364.062 302.031 364.244C302.795 365.392 303.858 365.831 305.496 366.612C306.219 366.979 306.971 367.286 307.746 367.53C308.581 367.781 309.459 367.863 310.328 367.773C311.196 367.683 312.039 367.421 312.805 367.004L312.839 367C314.267 366.183 315.437 364.985 316.217 363.543C317.119 361.734 317.431 359.692 317.11 357.701C316.867 355.334 316.025 353.715 315.07 351.903C313.612 349.244 311.762 346.817 309.579 344.703C308.788 343.887 308.092 343.238 307.595 342.791L298.324 344.377Z" fill="#191919"/>
<path d="M333.894 297.175C332.381 284.045 317.753 274.946 301.223 276.854C284.693 278.761 272.52 290.951 274.033 304.081C275.547 317.211 290.174 326.309 306.704 324.402C323.234 322.495 335.407 310.305 333.894 297.175Z" fill="#191919"/>
<path d="M287.444 312.879C291.733 312.146 294.653 308.302 293.966 304.292C293.278 300.282 289.244 297.625 284.955 298.358C280.666 299.09 277.746 302.934 278.433 306.944C279.12 310.954 283.155 313.611 287.444 312.879Z" fill="white"/>
<path d="M290.939 303.006C290.838 302.248 290.139 301.717 289.378 301.819C288.617 301.921 288.083 302.618 288.184 303.375L288.919 308.845C289.02 309.603 289.719 310.134 290.48 310.032C291.241 309.93 291.775 309.233 291.673 308.476L290.939 303.006Z" fill="#191919"/>
<path d="M316.048 309.359C320.337 308.627 323.257 304.783 322.57 300.773C321.882 296.763 317.848 294.106 313.559 294.838C309.27 295.57 306.35 299.415 307.037 303.425C307.724 307.434 311.759 310.091 316.048 309.359Z" fill="white"/>
<path d="M316.784 305.395C316.869 306.154 317.556 306.701 318.318 306.615C319.081 306.53 319.631 305.846 319.546 305.086L318.933 299.601C318.849 298.841 318.161 298.295 317.399 298.381C316.636 298.466 316.086 299.15 316.171 299.91L316.784 305.395Z" fill="#191919"/>
<path d="M301.756 311.887C302.772 311.762 303.495 310.843 303.371 309.835C303.247 308.826 302.323 308.11 301.307 308.235C300.292 308.36 299.569 309.279 299.693 310.287C299.817 311.296 300.741 312.012 301.756 311.887Z" fill="white"/>
<path d="M276.921 310.588L267.543 315.215C267.084 315.442 266.896 315.994 267.123 316.449C267.35 316.904 267.906 317.089 268.365 316.863L277.743 312.236C278.202 312.01 278.39 311.457 278.163 311.002C277.936 310.547 277.38 310.362 276.921 310.588Z" fill="#191919"/>
<path d="M271.609 320.563C271.456 320.373 271.384 320.132 271.409 319.89C271.433 319.648 271.553 319.425 271.741 319.27L280.879 311.816L282.056 313.237L272.918 320.69C272.727 320.845 272.482 320.918 272.237 320.894C271.992 320.87 271.766 320.751 271.609 320.563Z" fill="#191919"/>
<path d="M332.518 303.707C332.018 303.599 331.524 303.913 331.414 304.41C331.304 304.906 331.619 305.397 332.119 305.505L342.339 307.723C342.839 307.831 343.333 307.517 343.443 307.02C343.553 306.524 343.237 306.034 342.738 305.925L332.518 303.707Z" fill="#191919"/>
<path d="M340.123 312.139C340.228 311.919 340.24 311.666 340.157 311.437C340.075 311.208 339.904 311.021 339.682 310.916L329.011 305.898L328.213 307.562L338.884 312.58C339.107 312.684 339.362 312.696 339.594 312.613C339.826 312.53 340.016 312.36 340.123 312.139Z" fill="#191919"/>
<path d="M333.28 295.454C331.17 287.563 328.012 279.988 323.887 272.929C322.308 270.229 320.59 267.612 318.739 265.09C317.982 265.959 317.231 266.882 316.517 267.876C310.606 276.045 309.219 285.072 309.049 291.505C315.802 291.881 322.505 292.866 329.076 294.446L333.28 295.454Z" fill="#191919"/>
<path d="M274.656 296.015C276.908 284.924 281.208 274.339 287.338 264.796C288.13 265.619 288.93 266.496 289.737 267.44C296.114 275.217 298.293 285.008 298.853 291.42L293.732 291.672C287.169 291.989 280.713 293.459 274.663 296.014L274.656 296.015Z" fill="#191919"/>
<path d="M331.361 206.718C327.708 219.75 327.726 233.522 331.415 246.532Z" fill="#191919"/>
<path d="M336.379 208.164C332.725 221.196 332.744 234.968 336.432 247.977Z" fill="#191919"/>
<path d="M318.066 197.85C316.918 202.895 316.468 208.071 316.728 213.235C317.06 219.74 318.548 226.132 321.124 232.118" fill="#191919"/>
<path d="M313.701 204.866C312.87 209.807 312.497 214.812 312.586 219.819C312.698 226.302 313.547 232.75 315.115 239.041" fill="#191919"/>
<path d="M310.82 194.421C309.284 200.249 308.292 206.204 307.855 212.21C307.28 219.983 307.591 227.794 308.781 235.494" fill="#191919"/>
<path d="M304.122 209.8C303.423 214.005 303.113 218.265 303.197 222.525C303.301 228.04 304.033 233.523 305.38 238.872" fill="#191919"/>
<path d="M297.502 343.882C297.519 344.409 297.937 344.831 298.612 345.311C302.678 348.183 308.822 352.096 321.324 350.072C328.706 348.869 331.816 343.509 332.072 341.885C332.235 340.842 331.021 339.858 330.378 339.347C327.88 337.368 324.116 336.389 314.976 337.807C312.947 338.119 297.384 340.615 297.502 343.882Z" fill="#191919"/>
<path d="M324.243 340.128L327.382 324.713C327.185 324.565 327.016 324.383 326.881 324.178C325.92 322.662 326.928 319.441 329.157 318.563C331.386 317.685 333.504 319.498 333.803 319.743C334.781 320.544 335.485 321.627 335.816 322.843C336.148 324.059 336.091 325.348 335.654 326.532C335.203 327.557 334.452 328.424 333.499 329.021L331.993 342.423" fill="#191919"/>
<path d="M317.524 279.278L317.897 260.201C319.171 259.226 320.123 257.894 320.628 256.377C321.727 252.885 319.99 248.993 317.131 247.058C316.678 246.743 313.359 244.494 310.431 245.987C307.503 247.48 306.4 252.181 307.981 254.183C308.192 254.46 308.456 254.694 308.757 254.871L306.346 277L303.206 295.27L317.429 291.332L317.524 279.278Z" fill="#191919"/>
<path d="M333.341 286.616L332.726 267.551C333.95 266.511 334.83 265.13 335.254 263.587C336.2 260.038 334.234 256.25 331.283 254.464C330.812 254.171 327.39 252.1 324.535 253.735C321.679 255.37 320.826 260.129 322.487 262.053C322.715 262.318 322.991 262.538 323.3 262.702L322.034 284.917L322.082 294.365L333.854 298.664L333.341 286.616Z" fill="#191919"/>
<path d="M327.071 334.945C325.996 331.266 322.755 328.864 319.427 329.019C315.914 329.183 313.863 332.126 313.629 332.478" stroke="#7E61F8" stroke-width="1.5" stroke-miterlimit="10"/>
<path d="M328.267 319.366C328.251 319.238 328.018 317.337 329.297 316.493C330.132 315.917 331.279 316.023 331.34 316.242C331.402 316.461 329.909 316.748 329.463 317.846C329.363 318.183 329.333 318.538 329.376 318.887C329.419 319.236 329.533 319.572 329.713 319.875" fill="#191919"/>
<path d="M310.241 250.181C310.059 250.162 307.378 249.846 306.591 247.883C306.07 246.574 306.585 245.021 306.929 245.006C307.273 244.991 307.189 247.123 308.545 248.082C308.977 248.334 309.458 248.494 309.957 248.55C310.456 248.607 310.961 248.561 311.441 248.413" fill="#191919"/>
<path d="M313.834 248.411C313.651 248.392 310.971 248.076 310.184 246.113C309.656 244.805 310.178 243.251 310.522 243.236C310.865 243.221 310.782 245.353 312.138 246.319C312.573 246.569 313.055 246.727 313.555 246.784C314.054 246.841 314.56 246.795 315.041 246.649" fill="#191919"/>
<path d="M317.629 250.548C317.784 250.454 320.094 249.051 319.949 246.92C319.878 245.5 318.765 244.319 318.468 244.431C318.17 244.543 319.133 246.464 318.277 247.887C317.983 248.291 317.609 248.631 317.178 248.884C316.746 249.138 316.266 249.301 315.769 249.363" fill="#191919"/>
<path d="M313.446 249.482C313.601 249.387 315.904 247.985 315.766 245.853C315.695 244.434 314.582 243.252 314.285 243.365C313.987 243.477 314.95 245.397 314.094 246.821C313.801 247.225 313.427 247.565 312.995 247.819C312.563 248.073 312.083 248.235 311.586 248.296" fill="#191919"/>
<path d="M325.397 257.035C325.22 257.002 322.558 256.437 321.974 254.387C321.571 253.022 322.231 251.533 322.554 251.569C322.876 251.605 322.595 253.706 323.883 254.784C324.29 255.068 324.752 255.266 325.24 255.364C325.728 255.463 326.231 255.46 326.719 255.355" fill="#191919"/>
<path d="M329.135 255.608C328.957 255.568 326.296 255.009 325.711 252.953C325.308 251.588 325.97 250.106 326.291 250.135C326.613 250.164 326.339 252.265 327.62 253.35C328.028 253.632 328.49 253.829 328.978 253.927C329.466 254.025 329.969 254.023 330.456 253.921" fill="#191919"/>
<path d="M332.744 258.074C332.907 257.999 335.354 256.812 335.417 254.676C335.477 253.254 334.476 251.97 334.171 252.083C333.867 252.196 334.649 254.166 333.668 255.523C333.341 255.897 332.94 256.2 332.491 256.413C332.041 256.627 331.552 256.746 331.054 256.764" fill="#191919"/>
<path d="M328.646 256.637C328.817 256.561 331.256 255.369 331.326 253.239C331.387 251.817 330.385 250.533 330.081 250.646C329.777 250.758 330.558 252.729 329.577 254.085C329.25 254.459 328.849 254.762 328.4 254.975C327.95 255.189 327.461 255.308 326.964 255.327" fill="#191919"/>
<path d="M330.477 320.468C330.461 320.339 330.227 318.439 331.506 317.595C332.341 317.019 333.488 317.125 333.55 317.344C333.611 317.563 332.119 317.849 331.673 318.948C331.572 319.285 331.542 319.639 331.585 319.988C331.628 320.337 331.743 320.674 331.922 320.977" fill="#191919"/>
<path d="M332.77 322.245C332.754 322.117 332.52 320.216 333.799 319.372C334.634 318.796 335.781 318.902 335.843 319.121C335.904 319.34 334.411 319.627 333.966 320.725C333.865 321.062 333.835 321.417 333.878 321.766C333.921 322.115 334.036 322.451 334.215 322.754" fill="#191919"/>
</g>
<path d="M354.107 376.025C356.35 380.688 357.942 385.634 358.838 390.726C359.964 397.141 359.937 403.704 358.76 410.113" fill="#624AC6"/>
<path d="M362.373 376.146C358.928 380.008 356.032 384.321 353.764 388.967C350.91 394.822 349.122 401.137 348.483 407.622" fill="#624AC6"/>
<path d="M359.925 381.894C361.835 386.526 363.314 391.322 364.343 396.223C365.677 402.568 366.287 409.043 366.159 415.526" fill="#624AC6"/>
<path d="M355.159 380.179C352.044 384.103 349.298 388.304 346.955 392.73C343.92 398.459 341.545 404.514 339.877 410.779" fill="#624AC6"/>
<path d="M360.408 371.071C363.203 376.411 365.497 381.995 367.261 387.753C369.553 395.203 370.99 402.886 371.545 410.659" fill="#624AC6"/>
<path d="M357.686 369.642C353.525 374.002 349.777 378.735 346.491 383.782C342.23 390.308 338.726 397.296 336.046 404.612" fill="#624AC6"/>
<path d="M371.781 19.4279C370.633 24.4733 370.183 29.6495 370.444 34.8133C370.775 41.3176 372.263 47.7104 374.839 53.6958" fill="#624AC6"/>
<path d="M357.195 72.4279C358.343 77.4733 358.793 82.6495 358.533 87.8133C358.201 94.3176 356.713 100.71 354.137 106.696" fill="#624AC6"/>
<path d="M367.417 26.4443C366.586 31.3852 366.213 36.3904 366.302 41.3972C366.414 47.8798 367.263 54.3279 368.831 60.6191" fill="#624AC6"/>
<path d="M361.56 79.4443C362.391 84.3852 362.764 89.3904 362.675 94.3972C362.563 100.88 361.714 107.328 360.146 113.619" fill="#624AC6"/>
<path d="M364.535 15.999C363 21.8268 362.007 27.7817 361.571 33.7883C360.996 41.5611 361.306 49.3719 362.497 57.0724" fill="#624AC6"/>
<path d="M364.441 68.999C365.977 74.8268 366.969 80.7817 367.406 86.7883C367.981 94.5611 367.67 102.372 366.48 110.072" fill="#624AC6"/>
<path d="M357.838 31.3778C357.138 35.5833 356.828 39.8431 356.913 44.1035C357.016 49.6178 357.748 55.1016 359.095 60.4501" fill="#624AC6"/>
<path d="M359.936 219.481C357.101 219.715 354.318 220.378 351.682 221.45C350.767 221.849 349.747 221.939 348.777 221.706C347.53 221.317 347.01 220.358 345.681 218.48C344.454 216.701 343.102 215.012 341.637 213.425C340.118 211.837 339.095 210.778 337.402 210.066C334.679 208.933 331.113 209.09 330.453 210.455C330.164 211.067 330.395 212.043 330.841 212.225C331.286 212.407 331.575 211.928 332.037 211.787C333.573 211.307 338.03 215.328 338.484 215.923C342.685 221.838 340.96 219.233 343.915 224.023C345.813 227.083 346.845 229.814 349.544 230.409C349.916 230.491 350.295 230.533 350.675 230.533C351.113 230.533 355 229.501 360.58 229.325" fill="white"/>
<path d="M359.936 219.481C357.101 219.715 354.318 220.378 351.682 221.45C350.767 221.849 349.747 221.939 348.777 221.706C347.53 221.317 347.01 220.358 345.681 218.48C344.454 216.701 343.102 215.012 341.637 213.425C340.118 211.837 339.095 210.778 337.402 210.066C334.679 208.933 331.113 209.09 330.453 210.455C330.164 211.067 330.395 212.043 330.841 212.225C331.286 212.407 331.575 211.928 332.037 211.787C333.573 211.307 338.03 215.328 338.484 215.923C342.685 221.838 340.96 219.233 343.915 224.023C345.813 227.083 346.845 229.814 349.544 230.409C349.916 230.491 350.295 230.533 350.675 230.533C351.113 230.533 355 229.501 360.58 229.325" stroke="#624AC6" stroke-width="2" stroke-miterlimit="10"/>
<path d="M288.481 78.1889L280.639 73.25" stroke="#624AC6" stroke-width="2" stroke-miterlimit="10"/>
<path d="M349.223 48.2153L357.815 32.2734" stroke="#624AC6" stroke-width="2" stroke-miterlimit="10"/>
<path d="M288.117 175.809L281.052 183.254" stroke="#624AC6" stroke-width="2" stroke-miterlimit="10"/>
<path d="M350.139 180.273L357.815 190.697" stroke="#624AC6" stroke-width="2" stroke-miterlimit="10"/>
<path d="M103.589 380.148L20.2227 414.066H340.482L257.941 379.32L103.589 380.148Z" fill="#F9F0EB" stroke="#624AC6" stroke-width="2" stroke-miterlimit="10"/>
<path d="M77.0439 357.812H44.2917C43.307 357.812 42.5088 358.613 42.5088 359.599V373.399C42.5088 374.386 43.307 375.186 44.2917 375.186H77.0439C78.0286 375.186 78.8268 374.386 78.8268 373.399V359.599C78.8268 358.613 78.0286 357.812 77.0439 357.812Z" fill="#F9F0EB" stroke="#624AC6" stroke-width="2" stroke-miterlimit="10"/>
<path d="M35.7734 357.812H3.02117C2.03651 357.812 1.23828 358.613 1.23828 359.599V373.399C1.23828 374.386 2.03651 375.186 3.02117 375.186H35.7734C36.7581 375.186 37.5563 374.386 37.5563 373.399V359.599C37.5563 358.613 36.7581 357.812 35.7734 357.812Z" fill="#F9F0EB" stroke="#624AC6" stroke-width="2" stroke-miterlimit="10"/>
<path d="M157.934 18.6211H125.182C124.197 18.6211 123.399 19.4211 123.399 20.408V34.2072C123.399 35.1941 124.197 35.9942 125.182 35.9942H157.934C158.919 35.9942 159.717 35.1941 159.717 34.2072V20.408C159.717 19.4211 158.919 18.6211 157.934 18.6211Z" fill="#F9F0EB" stroke="#624AC6" stroke-width="2" stroke-miterlimit="10"/>
<path d="M117.489 18.6211H84.7365C83.7518 18.6211 82.9536 19.4211 82.9536 20.408V34.2072C82.9536 35.1941 83.7518 35.9942 84.7365 35.9942H117.489C118.473 35.9942 119.272 35.1941 119.272 34.2072V20.408C119.272 19.4211 118.473 18.6211 117.489 18.6211Z" fill="#F9F0EB" stroke="#624AC6" stroke-width="2" stroke-miterlimit="10"/>
<path d="M239.649 18.6211H206.897C205.912 18.6211 205.114 19.4211 205.114 20.408V34.2072C205.114 35.1941 205.912 35.9942 206.897 35.9942H239.649C240.634 35.9942 241.432 35.1941 241.432 34.2072V20.408C241.432 19.4211 240.634 18.6211 239.649 18.6211Z" fill="#F9F0EB" stroke="#624AC6" stroke-width="2" stroke-miterlimit="10"/>
<path d="M280.095 18.6211H247.342C246.358 18.6211 245.56 19.4211 245.56 20.408V34.2072C245.56 35.1941 246.358 35.9942 247.342 35.9942H280.095C281.079 35.9942 281.878 35.1941 281.878 34.2072V20.408C281.878 19.4211 281.079 18.6211 280.095 18.6211Z" fill="#F9F0EB" stroke="#624AC6" stroke-width="2" stroke-miterlimit="10"/>
<path d="M199.205 18.6211H166.452C165.468 18.6211 164.669 19.4211 164.669 20.408V34.2072C164.669 35.1941 165.468 35.9942 166.452 35.9942H199.205C200.189 35.9942 200.987 35.1941 200.987 34.2072V20.408C200.987 19.4211 200.189 18.6211 199.205 18.6211Z" fill="#F9F0EB" stroke="#624AC6" stroke-width="2" stroke-miterlimit="10"/>
<path d="M56.5351 336.301H23.7829C22.7982 336.301 22 337.101 22 338.088V351.887C22 352.874 22.7982 353.674 23.7829 353.674H56.5351C57.5198 353.674 58.318 352.874 58.318 351.887V338.088C58.318 337.101 57.5198 336.301 56.5351 336.301Z" fill="#F9F0EB" stroke="#624AC6" stroke-width="2" stroke-miterlimit="10"/>
<path d="M81.5717 353.674H64.7828C64.31 353.674 63.8565 353.486 63.5221 353.15C63.1878 352.815 63 352.361 63 351.887V338.088C63 337.614 63.1878 337.159 63.5221 336.824C63.8565 336.489 64.31 336.301 64.7828 336.301H81.159" fill="#F9F0EB"/>
<path d="M81.5717 353.674H64.7828C64.31 353.674 63.8565 353.486 63.5221 353.15C63.1878 352.815 63 352.361 63 351.887V338.088C63 337.614 63.1878 337.159 63.5221 336.824C63.8565 336.489 64.31 336.301 64.7828 336.301H81.159" stroke="#624AC6" stroke-width="2" stroke-miterlimit="10"/>
<path d="M81.4922 332.166H73.7828C73.31 332.166 72.8565 331.978 72.5221 331.643C72.1878 331.308 72 330.853 72 330.379V316.58C72 316.106 72.1878 315.651 72.5221 315.316C72.8565 314.981 73.31 314.793 73.7828 314.793H81.0795" fill="#F9F0EB"/>
<path d="M81.4922 332.166H73.7828C73.31 332.166 72.8565 331.978 72.5221 331.643C72.1878 331.308 72 330.853 72 330.379V316.58C72 316.106 72.1878 315.651 72.5221 315.316C72.8565 314.981 73.31 314.793 73.7828 314.793H81.0795" stroke="#624AC6" stroke-width="2" stroke-miterlimit="10"/>
<path d="M381.843 214.723H381.661C380.8 214.723 380.101 215.423 380.101 216.286V232.576C380.101 233.439 380.8 234.139 381.661 234.139H381.843C382.704 234.139 383.403 233.439 383.403 232.576V216.286C383.403 215.423 382.704 214.723 381.843 214.723Z" fill="white" stroke="#624AC6" stroke-width="2" stroke-miterlimit="10"/>
<path d="M363.593 249.851C364.277 249.851 364.831 248.925 364.831 247.783C364.831 246.641 364.277 245.715 363.593 245.715C362.909 245.715 362.355 246.641 362.355 247.783C362.355 248.925 362.909 249.851 363.593 249.851Z" fill="#624AC6"/>
<path d="M363.973 248.906L364.831 251.504H362.355L362.974 249.022L363.973 248.906Z" fill="#624AC6"/>
<path d="M357.815 32.2734L280.639 73.2573V183.667L357.815 190.302V32.2734Z" stroke="#624AC6" stroke-width="2" stroke-miterlimit="10"/>
<path d="M40.2254 28.8882C38.1938 28.691 36.2901 27.8068 34.8288 26.3818C33.3674 24.9567 32.4357 23.0759 32.1875 21.0499C32.1875 21.0367 32.1822 21.024 32.1729 21.0146C32.1635 21.0053 32.1509 21 32.1377 21C32.1244 21 32.1117 21.0053 32.1023 21.0146C32.093 21.024 32.0877 21.0367 32.0877 21.0499C31.8395 23.0759 30.9078 24.9567 29.4464 26.3818C27.9851 27.8068 26.0815 28.691 24.0499 28.8882C24.0367 28.8882 24.024 28.8935 24.0146 28.9028C24.0053 28.9122 24 28.9249 24 28.9381C24 28.9513 24.0053 28.964 24.0146 28.9734C24.024 28.9827 24.0367 28.988 24.0499 28.988C26.0811 29.1865 27.9839 30.071 29.445 31.4959C30.9062 32.9207 31.8382 34.8008 32.0877 36.8263C32.0877 36.8396 32.093 36.8522 32.1023 36.8616C32.1117 36.8709 32.1244 36.8762 32.1377 36.8762C32.1509 36.8762 32.1635 36.8709 32.1729 36.8616C32.1822 36.8522 32.1875 36.8396 32.1875 36.8263C32.437 34.8008 33.3691 32.9207 34.8302 31.4959C36.2913 30.071 38.1942 29.1865 40.2254 28.988C40.2386 28.988 40.2513 28.9827 40.2606 28.9734C40.27 28.964 40.2752 28.9513 40.2752 28.9381C40.2752 28.9249 40.27 28.9122 40.2606 28.9028C40.2513 28.8935 40.2386 28.8882 40.2254 28.8882Z" stroke="#624AC6" stroke-width="2" stroke-miterlimit="10"/>
</g>
<defs>
<linearGradient id="paint0_linear_182_32056" x1="324.906" y1="3" x2="324.906" y2="427.399" gradientUnits="userSpaceOnUse">
<stop stop-color="#7E61F8"/>
<stop offset="1" stop-color="#7458E9"/>
</linearGradient>
<clipPath id="clip0_182_32056">
<rect width="408" height="430" fill="white"/>
</clipPath>
<clipPath id="clip1_182_32056">
<rect width="82" height="172" fill="white" transform="translate(252.947 201.535) rotate(-7.00799)"/>
</clipPath>
</defs>
</svg>
