<svg width="144" height="160" viewBox="0 0 144 160" fill="none" xmlns="http://www.w3.org/2000/svg">
<path d="M105.924 130.861C111.248 123.462 116.63 116.101 121.879 108.651C126.072 102.818 129.936 96.7562 133.454 90.4933C129.007 92.1051 124.413 93.2739 119.737 93.983C111.726 95.1453 103.571 94.8628 95.6597 93.1487L74.9417 114.897C75.9901 117.548 77.2351 120.118 78.666 122.584C82.8201 129.757 87.9871 134.33 97.6619 142.329L105.924 130.861Z" fill="#624AC6"/>
<path d="M59.086 113.425C38.5225 109.941 24.1058 93.7469 26.8853 77.2535C29.6648 60.7601 48.5879 50.2134 69.1514 53.6967C89.7149 57.1801 104.132 73.3745 101.352 89.8679C98.5726 106.361 79.6494 116.908 59.086 113.425Z" fill="#191919"/>
<path d="M89.1903 102.746C89.1139 103.704 88.28 104.418 87.3275 104.341C86.375 104.265 85.6645 103.427 85.7409 102.47L86.301 95.4498C86.3774 94.4925 87.2118 93.7784 88.1643 93.8548C89.1167 93.9312 89.8269 94.7692 89.7505 95.7265L89.1903 102.746Z" fill="#191919"/>
<path d="M24.0819 95.224C24.0858 94.9504 24.1694 94.6839 24.3221 94.4572C24.4749 94.2305 24.6904 94.0534 24.9421 93.9477L33.7587 92.1711C34.1888 92.0849 34.4985 92.5161 34.4383 93.137C34.4322 93.4101 34.3477 93.6756 34.1951 93.9019C34.0426 94.1283 33.8286 94.3058 33.5781 94.4133L24.7526 96.1899C24.3226 96.2761 24.0131 95.8449 24.0819 95.224Z" fill="#191919"/>
<path d="M24.1933 102.008C24.1742 101.722 24.2302 101.436 24.3555 101.179C24.4807 100.922 24.671 100.702 24.9073 100.542L34.9198 95.3672L35.0659 97.48L25.0535 102.654C24.6234 102.879 24.2363 102.585 24.1933 102.008Z" fill="#191919"/>
<path d="M86.4974 103.77L96.5796 112.997C97.0533 113.43 97.0865 114.166 96.6541 114.641C96.2218 115.116 95.4875 115.15 95.0139 114.716L84.9317 105.489C84.458 105.056 84.4245 104.319 84.8569 103.845C85.2892 103.37 86.0238 103.336 86.4974 103.77Z" fill="#191919"/>
<path d="M87.9573 104.279C91.2679 107.067 94.4264 110.033 97.4191 113.161C101.944 117.887 103.148 119.931 106.287 120.785C110.674 121.975 114.812 119.741 116.42 118.879C122.244 115.749 121.581 112.161 127.818 106.806C132.067 103.149 139.292 98.8544 142.389 101.088C143.099 101.698 143.603 102.515 143.829 103.425C144.056 104.336 143.994 105.294 143.653 106.167C142.621 108.513 139.507 107.953 134.785 109.979C130.484 111.851 127.594 114.679 124.652 117.603C120.712 121.518 120.093 123.588 116.42 125.218C114.244 126.184 112.85 126.175 112.618 127.124C112.231 128.728 115.818 130.306 120.85 135.377C125.031 139.585 124.781 140.732 124.652 141.094C124.084 142.716 120.713 143.207 118.321 143C113.676 142.595 112.403 139.551 108.188 139.827C106.827 139.882 105.51 140.321 104.387 141.094C103.315 141.897 102.462 142.958 101.909 144.179C101.356 145.401 101.119 146.742 101.221 148.08C101.574 151.762 104.756 152.53 104.387 155.695C104.285 156.482 104.004 157.235 103.565 157.896C103.127 158.557 102.543 159.108 101.858 159.506C101.268 159.804 100.617 159.96 99.9568 159.96C99.2965 159.96 98.6454 159.804 98.0558 159.506C96.585 158.644 96.5418 157.126 95.5182 155.065C94.615 153.237 93.4453 152.15 91.0884 149.986C86.4435 145.674 82.0737 144.475 77.1536 141.094C72.5207 137.953 68.6305 133.832 65.7564 129.021C65.0683 127.831 65.0944 127.693 58.7894 115.05L57.5593 112.532" fill="#191919"/>
<path d="M93.213 139.43C85.2651 141.154 78.4953 130.073 77.4545 128.365C75.8202 125.674 73.8934 122.518 75.0891 120.466C76.9384 117.327 85.2134 118.422 90.8475 121.259C92.5678 122.121 101.006 126.373 100.309 132.315C99.8964 135.816 96.516 138.697 93.213 139.43Z" fill="white"/>
<path d="M81.7555 2.5329C81.7399 2.05497 81.5998 1.58945 81.3494 1.18252C81.0989 0.77558 80.747 0.44137 80.3279 0.213062C80.207 0.15159 80.0798 0.102476 79.9491 0.0664566C79.4479 -0.0336182 78.9308 -0.0205281 78.4354 0.104776C77.9399 0.23008 77.4789 0.464447 77.0851 0.790863C74.1112 2.7578 71.3821 5.07393 68.9564 7.69C58.1871 19.4358 53.3445 27.0162 53.3445 27.0162C49.8381 33.2131 46.8931 39.7128 44.545 46.4373C43.1655 46.4893 41.7899 46.6189 40.4248 46.8254C39.7023 46.9288 40.5022 46.8254 22.1463 53.3192C16.7961 55.2078 10.4909 57.4155 4.48692 63.3229C1.49355 66.2637 -0.174912 68.894 0.0143242 71.8002C0.06888 72.7332 0.306642 73.6462 0.714047 74.4868C1.12145 75.3274 1.69027 76.0791 2.38817 76.6986C4.42676 78.3458 6.86096 77.561 9.84573 76.6296C13.6391 75.5085 17.5873 75.1808 21.2946 73.7147C29.1307 70.6274 39.1429 71.9123 51.1508 73.4474C63.4597 75.0256 73.438 78.2164 84.0008 81.597C92.2412 84.2273 96.3526 85.5468 96.6966 85.702C100.266 87.3492 103.991 89.5138 109.384 89.807C111.457 89.9191 113.341 89.7294 115.104 88.3495C116.644 87.1508 118.545 84.693 118.459 81.9937C118.364 78.4234 114.88 75.9052 112.61 74.3098C98.847 64.6338 91.9656 59.8044 88.8346 58.3469C88.2669 58.0882 87.467 57.7174 86.4692 57.2862C85.4447 54.44 84.651 51.5156 84.0953 48.5415C83.2445 43.5208 82.8928 38.4279 83.0457 33.3375C83.1059 28.5254 83.0459 23.7133 82.7362 18.9097L81.7555 2.5329Z" fill="#624AC6"/>
<path d="M90.1775 56.6376C86.08 57.5139 82.2811 56.4098 78.5154 55.6824C74.4428 54.9113 70.3953 53.9999 66.3973 52.9659C58.4248 50.8898 50.5823 48.2909 42.9157 45.1842C40.8089 44.3079 42.7165 39.199 44.8233 40.0578C52.1406 43.0212 59.6189 45.5202 67.2183 47.5415C70.9342 48.5288 74.6808 49.4051 78.4575 50.1704C82.1485 50.9153 86.1794 52.37 90.2022 51.52C92.591 51.0205 92.6076 56.1206 90.2022 56.6376H90.1775Z" fill="white"/>
<path d="M99.1567 75.4492C97.7711 65.9856 95.1361 56.7488 91.3208 47.982C89.8625 44.6266 88.2289 41.3508 86.4265 38.168C85.4373 39.0735 84.448 40.0566 83.4932 41.1173C75.6141 49.8189 72.8098 60.1417 71.7604 67.61C79.4899 68.9493 87.0821 70.9901 94.4431 73.7072L99.1567 75.4492Z" fill="#191919"/>
<path d="M29.9392 68.9883C32.8831 59.8907 37.0193 51.2255 42.2394 43.2201C44.2378 40.1573 46.3942 37.2011 48.6994 34.3633C49.5596 35.424 50.3338 36.5538 51.0993 37.7611C57.4129 47.6614 58.6341 59.3209 58.4191 66.8841L52.4925 66.4874C44.8863 65.9785 37.2506 66.8253 29.9392 68.9883Z" fill="#191919"/>
<path d="M92.5613 107.244C92.4936 108.848 91.8764 110.406 91.672 111.997C91.4841 113.459 90.8539 116.352 92.2889 117.379C92.9837 117.877 93.81 118.016 94.6065 117.756C95.7483 117.384 95.8043 116.015 95.8984 114.978C95.9582 114.319 95.8061 113.7 95.5255 113.117C95.094 112.221 95.0451 111.168 94.5668 110.263C94.1654 109.503 93.9928 108.656 93.6075 107.926" stroke="#624AC6" stroke-width="2" stroke-linecap="round"/>
<path d="M91.6061 107.544C90.2124 108.341 88.565 108.648 87.1093 109.322C85.7711 109.941 82.9869 110.947 82.8812 112.709C82.83 113.562 83.1522 114.335 83.7961 114.872C84.719 115.64 85.908 114.958 86.8355 114.486C87.4249 114.186 87.8684 113.728 88.2122 113.18C88.7409 112.338 89.6063 111.736 90.1185 110.849C90.5482 110.105 91.1728 109.508 91.5855 108.793" stroke="#624AC6" stroke-width="2" stroke-linecap="round"/>
<path d="M30.2273 112.104C28.1216 111.734 26.7138 109.723 27.0828 107.612C27.4518 105.5 29.458 104.089 31.5636 104.459L64.6064 110.265C66.7121 110.635 68.1199 112.646 67.7509 114.757C67.3819 116.868 65.3758 118.28 63.2701 117.91L30.2273 112.104Z" fill="#191919"/>
<path d="M31.6153 110.535C30.5577 110.35 29.8507 109.34 30.036 108.279C30.2213 107.219 31.2289 106.51 32.2864 106.696L34.0487 107.005C35.1062 107.191 35.8132 108.202 35.6278 109.262C35.4425 110.322 34.435 111.031 33.3775 110.845L31.6153 110.535Z" fill="white"/>
<path d="M74.7632 108.423L69.6022 107.112C67.5378 106.577 65.5076 107.509 65.0775 109.182C64.656 110.846 65.9981 112.631 68.0625 113.166L72.9311 114.416" stroke="white" stroke-width="1.8" stroke-miterlimit="10"/>
<g clip-path="url(#clip0_182_32279)">
<path d="M64.747 99.5846C59.0072 98.4499 55.2203 93.1486 56.2888 87.7437C57.3572 82.3388 62.8765 78.8772 68.6163 80.0119C74.3562 81.1466 78.1431 86.4479 77.0746 91.8528C76.0062 97.2577 70.4869 100.719 64.747 99.5846Z" fill="white"/>
<path d="M65.1703 92.5472C64.9696 93.5621 63.9863 94.2227 62.9738 94.0225C61.9613 93.8224 61.3033 92.8374 61.5039 91.8224L62.9536 84.4894C63.1542 83.4744 64.1376 82.8138 65.15 83.014C66.1625 83.2141 66.8205 84.1992 66.6199 85.2142L65.1703 92.5472Z" fill="#191919"/>
<path d="M36.2025 93.0187C32.3226 92.2517 30.0093 87.4227 31.0352 82.2328C32.0612 77.0429 36.038 73.4574 39.9179 74.2244C43.7978 74.9915 46.1116 79.8205 45.0857 85.0104C44.0597 90.2003 40.0825 93.7857 36.2025 93.0187Z" fill="white"/>
<path d="M38.0278 87.0037C37.8281 88.0137 36.8475 88.6706 35.8375 88.4709C34.8276 88.2712 34.1706 87.2906 34.3703 86.2807L35.8164 78.9658C36.016 77.9558 36.9966 77.2989 38.0066 77.4985C39.0166 77.6982 39.6735 78.6788 39.4739 79.6888L38.0278 87.0037Z" fill="#191919"/>
<path d="M47.8607 97.0002C46.6119 96.7472 45.8211 95.4488 46.0943 94.1001C46.3676 92.7514 47.6014 91.8631 48.8502 92.1161C50.099 92.3691 50.8898 93.6675 50.6166 95.0162C50.3434 96.3649 49.1095 97.2532 47.8607 97.0002Z" fill="white"/>
</g>
<defs>
<clipPath id="clip0_182_32279">
<rect width="46.2061" height="26.9097" fill="white" transform="matrix(-0.999035 0.0439251 0.0439251 0.999035 76.5454 72.0859)"/>
</clipPath>
</defs>
</svg>
