<svg width="45" height="40" viewBox="0 0 45 40" fill="none" xmlns="http://www.w3.org/2000/svg">
<path d="M41.9745 24.2419C42.0399 16.0573 33.2636 9.36015 22.3721 9.28336C11.4806 9.20658 2.59835 15.7793 2.53295 23.9638C2.46756 32.1484 11.2438 38.8454 22.1353 38.9222C33.0268 38.999 41.9091 32.4264 41.9745 24.2419Z" fill="#191919"/>
<path d="M12.7721 32.086C15.6171 31.96 17.8211 29.8178 17.6948 27.3013C17.5684 24.7848 15.1596 22.8469 12.3145 22.973C9.46947 23.099 7.2655 25.2412 7.39184 27.7577C7.51818 30.2742 9.92699 32.212 12.7721 32.086Z" fill="white"/>
<path d="M13.6374 25.9178C13.6319 25.4448 13.2201 25.0655 12.7177 25.0707C12.2153 25.0759 11.8126 25.4636 11.8181 25.9366L11.8581 29.3545C11.8637 29.8275 12.2754 30.2068 12.7778 30.2016C13.2801 30.1964 13.683 29.8087 13.6774 29.3357L13.6374 25.9178Z" fill="#191919"/>
<path d="M31.6373 32.084C34.4824 31.958 36.6863 29.8158 36.56 27.2993C36.4337 24.7828 34.0249 22.845 31.1798 22.971C28.3347 23.0971 26.1307 25.2392 26.2571 27.7557C26.3834 30.2722 28.7922 32.2101 31.6373 32.084Z" fill="white"/>
<path d="M30.2396 29.3356C30.234 29.8087 30.6368 30.1964 31.1392 30.2015C31.6416 30.2067 32.0533 29.8275 32.0589 29.3544L32.0989 25.9366C32.1044 25.4635 31.7017 25.0758 31.1993 25.0706C30.6969 25.0654 30.2851 25.4447 30.2796 25.9178L30.2396 29.3356Z" fill="#191919"/>
<path d="M22.1631 32.556C22.833 32.556 23.3761 32.0459 23.3761 31.4167C23.3761 30.7874 22.833 30.2773 22.1631 30.2773C21.4932 30.2773 20.9502 30.7874 20.9502 31.4167C20.9502 32.0459 21.4932 32.556 22.1631 32.556Z" fill="white"/>
<path d="M7.03466 31.9861L0.572039 34.1215C0.256076 34.2259 0.0900965 34.5511 0.201241 34.8479C0.312385 35.1447 0.658557 35.3007 0.97452 35.1963L7.43715 33.0609C7.75311 32.9565 7.91919 32.6313 7.80805 32.3345C7.6969 32.0377 7.35063 31.8817 7.03466 31.9861Z" fill="#191919"/>
<path d="M2.78315 37.7208C2.69734 37.5925 2.66895 37.4375 2.70429 37.2897C2.73964 37.1419 2.83582 37.0132 2.97179 36.9317L9.50365 33.041L10.155 34.0031L3.62316 37.8938C3.48712 37.9748 3.32258 38.002 3.16526 37.9696C3.00794 37.9372 2.87063 37.8478 2.78315 37.7208Z" fill="#191919"/>
<path d="M37.4101 31.9619C37.0942 31.8575 36.7479 32.0135 36.6368 32.3103C36.5256 32.6071 36.6917 32.9323 37.0076 33.0367L43.4703 35.1721C43.7862 35.2765 44.1324 35.1206 44.2436 34.8238C44.3547 34.527 44.1887 34.2017 43.8727 34.0973L37.4101 31.9619Z" fill="#191919"/>
<path d="M41.6777 37.72C41.7635 37.5918 41.7919 37.4368 41.7566 37.289C41.7212 37.1412 41.625 37.0125 41.4891 36.931L34.9707 33.0234L34.3193 33.9856L40.8512 37.8762C40.9839 37.9549 41.1438 37.9826 41.2977 37.9535C41.4516 37.9245 41.5877 37.8408 41.6777 37.72Z" fill="#191919"/>
<path d="M41.709 23.1457C40.6911 16.2084 38.3103 9.50911 34.6876 3.38867C34.1215 3.86129 33.5644 4.37609 33.0163 4.9331C28.524 9.50312 26.9068 14.9466 26.2778 18.8879C30.6348 19.6295 34.9111 20.741 39.0541 22.2089L41.709 23.1457Z" fill="#191919"/>
<path d="M3.57861 19.0602C5.27759 14.2625 7.64942 9.69873 10.6315 5.48941C11.7714 3.88323 12.9994 2.33388 14.3107 0.847656C14.7719 1.41029 15.2212 2.01092 15.6584 2.64951C19.1804 7.91157 19.8138 14.0935 19.6656 18.077L16.3188 17.8449C12.0297 17.5462 7.71808 17.9619 3.583 19.0729L3.57861 19.0602Z" fill="#191919"/>
</svg>
