<svg width="133" height="95" viewBox="0 0 133 95" fill="none" xmlns="http://www.w3.org/2000/svg">
<path d="M97.5621 62.7717C98.2517 48.9676 84.8228 37.0784 67.5676 36.2164C50.3125 35.3543 35.7654 45.8459 35.0758 59.65C34.3862 73.4541 47.8152 85.3433 65.0703 86.2054C82.3254 87.0674 96.8725 76.5758 97.5621 62.7717Z" fill="#624AC6" stroke="white" stroke-width="2" stroke-miterlimit="10"/>
<path d="M67.0275 76.8167C68.09 76.8167 68.9514 75.9553 68.9514 74.8927C68.9514 73.8301 68.09 72.9688 67.0275 72.9688C65.9649 72.9688 65.1035 73.8301 65.1035 74.8927C65.1035 75.9553 65.9649 76.8167 67.0275 76.8167Z" fill="white"/>
<path d="M97.3859 66.2018C96.8777 66.0469 96.3401 66.3333 96.1852 66.8415C96.0303 67.3498 96.3168 67.8873 96.825 68.0422L107.22 71.2102C107.728 71.3651 108.265 71.0787 108.42 70.5705C108.575 70.0623 108.289 69.5248 107.781 69.3699L97.3859 66.2018Z" fill="white"/>
<path d="M106.654 77.9009C106.78 77.6786 106.814 77.4153 106.747 77.1684C106.68 76.9214 106.519 76.7109 106.297 76.5826L95.6871 70.4688L94.7251 72.1362L105.357 78.2572C105.577 78.379 105.835 78.4099 106.078 78.3434C106.32 78.2768 106.527 78.118 106.654 77.9009Z" fill="white"/>
<path d="M35.2553 66.2116L24.8606 69.3797C24.3524 69.5346 24.066 70.0721 24.2209 70.5803C24.3758 71.0886 24.9133 71.375 25.4215 71.2201L35.8162 68.052C36.3244 67.8971 36.6108 67.3596 36.456 66.8514C36.3011 66.3432 35.7635 66.0567 35.2553 66.2116Z" fill="white"/>
<path d="M27.401 77.9002C27.2744 77.678 27.2407 77.4146 27.3075 77.1677C27.3742 76.9207 27.5359 76.7102 27.7573 76.582L38.3817 70.4609L39.3438 72.1284L28.7121 78.2494C28.6033 78.3132 28.4828 78.3548 28.3578 78.3717C28.2328 78.3887 28.1056 78.3807 27.9837 78.3482C27.8618 78.3157 27.7475 78.2594 27.6475 78.1825C27.5475 78.1057 27.4637 78.0097 27.401 77.9002Z" fill="white"/>
<path d="M52.1274 74.0748C51.8061 74.076 51.4849 74.0593 51.1654 74.025C48.8023 73.6937 46.6581 72.4634 45.1798 70.5904C45.0842 70.4717 45.0149 70.334 44.9766 70.1865C44.9382 70.039 44.9316 69.8851 44.9572 69.7348C44.9828 69.5846 45.04 69.4415 45.1251 69.3151C45.2101 69.1886 45.3211 69.0817 45.4506 69.0013C45.6761 68.8567 45.9478 68.802 46.2118 68.8482C46.4757 68.8944 46.7127 69.0381 46.8757 69.2507C47.9966 70.6935 49.6345 71.6441 51.4433 71.9015C52.7557 72.0152 54.0741 71.7647 55.2533 71.1776C56.4326 70.5905 57.427 69.6895 58.1273 68.5738C58.2709 68.3538 58.49 68.1939 58.7433 68.1244C58.9967 68.0548 59.2667 68.0803 59.5025 68.1961C59.637 68.2626 59.756 68.3567 59.8517 68.4723C59.9474 68.5878 60.0177 68.7223 60.058 68.8668C60.0983 69.0113 60.1078 69.1627 60.0858 69.3111C60.0637 69.4595 60.0107 69.6016 59.9302 69.7281C59.0917 71.0426 57.9396 72.128 56.5776 72.8867C55.2156 73.6455 53.6863 74.0537 52.1274 74.0748Z" fill="white"/>
<path d="M81.9986 74.073C80.4461 74.0442 78.9248 73.6323 77.5698 72.874C76.2148 72.1157 75.0681 71.0344 74.2315 69.7263C74.152 69.5994 74.0999 69.4574 74.0785 69.3092C74.0571 69.1611 74.0667 69.0101 74.1069 68.8659C74.1472 68.7217 74.2171 68.5875 74.3121 68.4718C74.4072 68.3562 74.5253 68.2616 74.659 68.1943C74.8946 68.0769 75.1651 68.0505 75.4188 68.1202C75.6726 68.1899 75.8918 68.3507 76.0343 68.5719C76.7316 69.6905 77.7255 70.5938 78.9055 71.1813C80.0855 71.7688 81.4054 72.0175 82.7183 71.8997C84.5279 71.6444 86.1665 70.6934 87.2859 69.2489C87.4489 69.0362 87.686 68.8926 87.9499 68.8464C88.2138 68.8002 88.4854 68.8548 88.711 68.9995C88.8414 69.079 88.9533 69.1856 89.039 69.312C89.1248 69.4385 89.1824 69.5818 89.208 69.7324C89.2337 69.883 89.2268 70.0373 89.1878 70.185C89.1488 70.3327 89.0785 70.4703 88.9818 70.5885C87.5069 72.4656 85.361 73.6969 82.9962 74.0231C82.6649 74.0588 82.3318 74.0755 81.9986 74.073Z" fill="white"/>
<path d="M65.7304 59.1867C90.9173 59.1867 111.335 51.7629 111.335 42.6051C111.335 33.4473 90.9173 26.0234 65.7304 26.0234C40.5435 26.0234 20.1255 33.4473 20.1255 42.6051C20.1255 51.7629 40.5435 59.1867 65.7304 59.1867Z" fill="#624AC6" stroke="white" stroke-width="2" stroke-miterlimit="10"/>
<path d="M43.5195 45.2929L54.7426 22.0629L64.4622 1.95401C64.5973 1.66861 64.8106 1.42744 65.0774 1.25855C65.3442 1.08966 65.6535 1 65.9693 1C66.285 1 66.5943 1.08966 66.8611 1.25855C67.1279 1.42744 67.3412 1.66861 67.4763 1.95401L77.1888 22.0629L88.4118 45.2929C73.6031 42.2431 58.3282 42.2431 43.5195 45.2929Z" fill="#624AC6" stroke="white" stroke-width="2" stroke-miterlimit="10"/>
<path d="M74.1603 44.2235V33.8983C74.1378 33.0244 73.7695 32.1952 73.1363 31.5926C72.503 30.9901 71.6565 30.6635 70.7826 30.6846H61.1486C60.2747 30.6635 59.4282 30.9901 58.7949 31.5926C58.1616 32.1952 57.7934 33.0244 57.771 33.8983V44.2235" stroke="white" stroke-width="2" stroke-miterlimit="10"/>
<path d="M70.2409 43.5135V36.4447C70.2409 35.2333 69.457 34.25 68.4808 34.25H63.4928C62.97 34.3127 62.4925 34.5774 62.1623 34.9875C61.8321 35.3976 61.6753 35.9206 61.7255 36.4447V43.5135" stroke="white" stroke-width="2" stroke-miterlimit="10"/>
<path d="M95.5 54L73 50.5L79.5 31L84.5 25L91 37L95.5 54Z" fill="#624AC6"/>
<path d="M37 54L60 50.5L53.3556 31L48.2444 25L41.6 37L37 54Z" fill="#624AC6"/>
<path d="M60.7422 94.1111V84.8477" stroke="white" stroke-width="2" stroke-miterlimit="10"/>
<path d="M73.9248 94.1111V84.8477" stroke="white" stroke-width="2" stroke-miterlimit="10"/>
<path d="M104.16 12.0367C102.128 11.8394 100.225 10.9553 98.7633 9.53021C97.302 8.10513 96.3703 6.22434 96.1221 4.19832C96.1221 4.18509 96.1168 4.17241 96.1075 4.16305C96.0981 4.1537 96.0855 4.14844 96.0722 4.14844C96.059 4.14844 96.0463 4.1537 96.0369 4.16305C96.0276 4.17241 96.0223 4.18509 96.0223 4.19832C95.7741 6.22434 94.8424 8.10513 93.381 9.53021C91.9197 10.9553 90.0161 11.8394 87.9845 12.0367C87.9713 12.0367 87.9585 12.0419 87.9492 12.0513C87.9398 12.0606 87.9346 12.0733 87.9346 12.0865C87.9346 12.0998 87.9398 12.1125 87.9492 12.1218C87.9585 12.1312 87.9713 12.1364 87.9845 12.1364C90.0157 12.3349 91.9185 13.2195 93.3796 14.6443C94.8407 16.0691 95.7728 17.9492 96.0223 19.9748C96.0223 19.988 96.0276 20.0007 96.0369 20.01C96.0463 20.0194 96.059 20.0246 96.0722 20.0246C96.0855 20.0246 96.0981 20.0194 96.1075 20.01C96.1168 20.0007 96.1221 19.988 96.1221 19.9748C96.3715 17.9492 97.3036 16.0691 98.7647 14.6443C100.226 13.2195 102.129 12.3349 104.16 12.1364C104.173 12.1364 104.186 12.1312 104.195 12.1218C104.205 12.1125 104.21 12.0998 104.21 12.0865C104.21 12.0733 104.205 12.0606 104.195 12.0513C104.186 12.0419 104.173 12.0367 104.16 12.0367Z" stroke="white" stroke-width="2" stroke-miterlimit="10"/>
<path d="M42.8782 12.0367C40.8466 11.8394 38.943 10.9553 37.4816 9.53021C36.0203 8.10513 35.0886 6.22434 34.8403 4.19832C34.8403 4.18509 34.8351 4.17241 34.8257 4.16305C34.8164 4.1537 34.8037 4.14844 34.7905 4.14844C34.7773 4.14844 34.7645 4.1537 34.7552 4.16305C34.7458 4.17241 34.7406 4.18509 34.7406 4.19832C34.4923 6.22434 33.5606 8.10513 32.0993 9.53021C30.6379 10.9553 28.7344 11.8394 26.7028 12.0367C26.6895 12.0367 26.6768 12.0419 26.6674 12.0513C26.6581 12.0606 26.6528 12.0733 26.6528 12.0865C26.6528 12.0998 26.6581 12.1125 26.6674 12.1218C26.6768 12.1312 26.6895 12.1364 26.7028 12.1364C28.7339 12.3349 30.6368 13.2195 32.0979 14.6443C33.559 16.0691 34.4911 17.9492 34.7406 19.9748C34.7406 19.988 34.7458 20.0007 34.7552 20.01C34.7645 20.0194 34.7773 20.0246 34.7905 20.0246C34.8037 20.0246 34.8164 20.0194 34.8257 20.01C34.8351 20.0007 34.8403 19.988 34.8403 19.9748C35.0898 17.9492 36.0219 16.0691 37.483 14.6443C38.9441 13.2195 40.8471 12.3349 42.8782 12.1364C42.8914 12.1364 42.9041 12.1312 42.9134 12.1218C42.9228 12.1125 42.928 12.0998 42.928 12.0865C42.928 12.0733 42.9228 12.0606 42.9134 12.0513C42.9041 12.0419 42.8914 12.0367 42.8782 12.0367Z" stroke="white" stroke-width="2" stroke-miterlimit="10"/>
<path d="M17.2254 60.4937C15.1938 60.2965 13.2901 59.4123 11.8288 57.9872C10.3674 56.5622 9.43572 54.6814 9.18749 52.6554C9.18749 52.6421 9.18224 52.6294 9.17288 52.6201C9.16353 52.6107 9.15088 52.6055 9.13765 52.6055C9.12442 52.6055 9.11169 52.6107 9.10234 52.6201C9.09298 52.6294 9.08772 52.6421 9.08772 52.6554C8.83949 54.6814 7.90779 56.5622 6.44644 57.9872C4.98509 59.4123 3.08155 60.2965 1.04993 60.4937C1.0367 60.4937 1.02397 60.499 1.01461 60.5083C1.00526 60.5177 1 60.5303 1 60.5436C1 60.5568 1.00526 60.5695 1.01461 60.5789C1.02397 60.5882 1.0367 60.5935 1.04993 60.5935C3.08108 60.792 4.98395 61.6765 6.44505 63.1013C7.90615 64.5262 8.83825 66.4063 9.08772 68.4318C9.08772 68.445 9.09298 68.4577 9.10234 68.4671C9.11169 68.4764 9.12442 68.4817 9.13765 68.4817C9.15088 68.4817 9.16353 68.4764 9.17288 68.4671C9.18224 68.4577 9.18749 68.445 9.18749 68.4318C9.43697 66.4063 10.3691 64.5262 11.8302 63.1013C13.2913 61.6765 15.1942 60.792 17.2254 60.5935C17.2386 60.5935 17.2512 60.5882 17.2606 60.5789C17.27 60.5695 17.2752 60.5568 17.2752 60.5436C17.2752 60.5303 17.27 60.5177 17.2606 60.5083C17.2512 60.499 17.2386 60.4937 17.2254 60.4937Z" stroke="white" stroke-width="2" stroke-miterlimit="10"/>
<path d="M131.95 60.4937C129.918 60.2965 128.015 59.4123 126.553 57.9872C125.092 56.5622 124.16 54.6814 123.912 52.6554C123.912 52.6421 123.907 52.6294 123.897 52.6201C123.888 52.6107 123.875 52.6055 123.862 52.6055C123.849 52.6055 123.836 52.6107 123.827 52.6201C123.818 52.6294 123.812 52.6421 123.812 52.6554C123.564 54.6814 122.632 56.5622 121.171 57.9872C119.71 59.4123 117.806 60.2965 115.775 60.4937C115.761 60.4937 115.749 60.499 115.739 60.5083C115.73 60.5177 115.725 60.5303 115.725 60.5436C115.725 60.5568 115.73 60.5695 115.739 60.5789C115.749 60.5882 115.761 60.5935 115.775 60.5935C117.806 60.792 119.709 61.6765 121.17 63.1013C122.631 64.5262 123.563 66.4063 123.812 68.4318C123.812 68.445 123.818 68.4577 123.827 68.4671C123.836 68.4764 123.849 68.4817 123.862 68.4817C123.875 68.4817 123.888 68.4764 123.897 68.4671C123.907 68.4577 123.912 68.445 123.912 68.4318C124.162 66.4063 125.094 64.5262 126.555 63.1013C128.016 61.6765 129.919 60.792 131.95 60.5935C131.963 60.5935 131.976 60.5882 131.985 60.5789C131.995 60.5695 132 60.5568 132 60.5436C132 60.5303 131.995 60.5177 131.985 60.5083C131.976 60.499 131.963 60.4937 131.95 60.4937Z" stroke="white" stroke-width="2" stroke-miterlimit="10"/>
<path d="M95.3453 55.4476C93.8252 47.7829 91.2924 40.3545 87.8134 33.3578C86.6946 31.106 85.4547 28.8828 84.1364 26.7237C83.6875 27.2153 83.2528 27.7141 82.8395 28.2201C76.8254 35.5525 74.93 44.5096 74.3314 49.7898C74.3008 50.0666 74.1627 50.3204 73.9467 50.4964C73.7308 50.6723 73.4544 50.7563 73.177 50.7304C73.0358 50.7179 72.8984 50.6774 72.7729 50.6114C72.6474 50.5453 72.5364 50.4549 72.4462 50.3455C72.356 50.2361 72.2885 50.1098 72.2476 49.974C72.2067 49.8382 72.1932 49.6957 72.2079 49.5546C72.835 44.0179 74.8302 34.5905 81.1792 26.8662C81.8918 25.9612 82.7255 25.0776 83.5592 24.2368L84.4999 23.2891L85.2124 24.4221C91.1506 33.7715 95.2949 44.1455 97.4331 55.013L95.3453 55.4476Z" fill="white"/>
<path d="M37.156 54.7342L35.061 54.3137C37.1993 43.4463 41.3436 33.0723 47.2817 23.7228L47.9943 22.5898L48.9349 23.5376C49.7686 24.3784 50.5666 25.262 51.3149 26.167C57.6639 33.9127 59.6592 43.3187 60.2863 48.8554C60.301 48.9965 60.2875 49.139 60.2466 49.2748C60.2057 49.4106 60.1381 49.5369 60.0479 49.6463C59.9577 49.7557 59.8467 49.8461 59.7212 49.9122C59.5957 49.9782 59.4583 50.0187 59.3171 50.0312C59.0456 50.0475 58.7783 49.959 58.5701 49.784C58.362 49.609 58.2289 49.3608 58.1984 49.0906C57.5998 43.8104 55.7044 34.839 49.6902 27.5209C49.277 27.015 48.8422 26.5161 48.3933 26.0245C47.075 28.1622 45.8351 30.4068 44.7164 32.6586C41.2287 39.6494 38.6863 47.073 37.156 54.7342Z" fill="white"/>
</svg>
