<svg width="46" height="44" viewBox="0 0 46 44" fill="none" xmlns="http://www.w3.org/2000/svg">
<path d="M3.74605 16.9534C3.11092 17.3626 2.57204 17.9046 2.16639 18.542C1.76075 19.1795 1.49798 19.8972 1.39626 20.6458C1.13905 21.6883 1.1264 22.7762 1.35931 23.8243C1.59223 24.8725 2.06439 25.8526 2.73889 26.6881C2.9319 26.9147 5.25308 29.4423 7.94188 28.7022C9.07875 28.337 10.0371 27.5584 10.6273 26.5203C11.3173 24.9951 11.494 23.2872 11.1309 21.653C10.7678 20.0188 9.88441 18.5465 8.61338 17.457C7.90738 16.9762 7.09287 16.6786 6.24324 16.5907C5.39362 16.5028 4.53553 16.6274 3.74605 16.9534Z" fill="#E3E3E3"/>
<path d="M39.2744 9.05576C40.0231 9.15749 40.7408 9.42026 41.3782 9.8259C42.0156 10.2315 42.5576 10.7704 42.9668 11.4056C43.6413 12.241 44.1135 13.2211 44.3464 14.2693C44.5793 15.3175 44.5667 16.4053 44.3095 17.4478C44.2155 17.7381 43.1983 21.0076 40.4491 21.4759C39.2645 21.6265 38.0666 21.327 37.0923 20.6366C36.4158 20.1387 35.8449 19.5115 35.4127 18.7912C34.9805 18.0709 34.6957 17.2719 34.5748 16.4406C34.3235 15.6377 34.2385 14.7919 34.3251 13.9551C34.4117 13.1182 34.668 12.3078 35.0784 11.5733C35.5143 10.8388 36.1259 10.2242 36.8584 9.78476C37.5908 9.34531 38.4211 9.09474 39.2744 9.05576Z" fill="#E3E3E3"/>
<path d="M26.381 0.968479C27.1654 1.12301 27.9076 1.44369 28.5578 1.90892C29.208 2.37415 29.7511 2.97312 30.1506 3.66568C30.8524 4.62112 31.3476 5.71236 31.6048 6.86964C31.8619 8.02692 31.8754 9.22501 31.6443 10.3878C31.557 10.7083 30.6137 14.3101 27.8611 14.7633C26.6415 14.8895 25.4215 14.528 24.4674 13.7579C23.0459 12.5609 22.1101 10.8863 21.8358 9.04832C21.2911 7.26875 21.43 5.34986 22.2252 3.66727C22.3477 3.43397 23.9271 0.768717 26.381 0.968479Z" fill="#E3E3E3"/>
<path d="M12.0004 4.16338C11.3552 4.63557 10.8186 5.24041 10.4266 5.93722C10.0346 6.63404 9.79631 7.40665 9.72775 8.20321C9.49661 9.36596 9.51013 10.5642 9.76728 11.7215C10.0244 12.8788 10.5196 13.9698 11.2214 14.9253C11.4212 15.1821 13.8162 18.0421 16.5016 17.2868C17.6599 16.8846 18.6121 16.0406 19.1502 14.9388C19.8023 13.2216 19.9373 11.3512 19.5389 9.55812C19.1405 7.76503 18.2259 6.12764 16.908 4.84822C16.6982 4.68877 14.2142 2.92643 12.0004 4.16338Z" fill="#E3E3E3"/>
<path d="M27.3974 38.643C28.3838 38.3347 29.3944 38.1101 30.4185 37.9717C34.6985 37.4011 36.157 38.7573 38.307 37.804C39.3374 37.2819 40.2082 36.4922 40.8284 35.5177C41.4485 34.5432 41.7952 33.4198 41.8317 32.2653C41.7805 31.1677 41.5001 30.093 41.0087 29.1102C40.5173 28.1274 39.8258 27.2583 38.9785 26.5588C37.0702 24.6051 36.3082 25.1707 33.4399 23.0341C30.1855 20.5869 30.0915 19.0227 27.5656 17.9988C26.0173 17.3987 24.3365 17.2248 22.6982 17.4952L22.8795 17.4549C21.2809 17.9038 19.8319 18.7732 18.6835 19.9725C16.8288 21.9697 17.4062 23.4266 15.4944 27.0217C13.816 30.1686 12.8711 29.9823 11.9697 32.5603C11.5021 33.554 11.2457 34.6339 11.2168 35.7317C11.1879 36.8295 11.3871 37.9213 11.8018 38.9382C12.3265 39.9665 13.1167 40.8358 14.0907 41.4555C15.0646 42.0753 16.1867 42.4231 17.3404 42.4629C19.707 42.4126 20.4539 40.5664 24.5576 39.2741C25.5439 38.9656 26.5545 38.7411 27.5787 38.6028" fill="#E3E3E3"/>
</svg>
