<svg width="417" height="371" viewBox="0 0 417 371" fill="none" xmlns="http://www.w3.org/2000/svg">
<path d="M115.294 124.861H130.204L133.012 173.446L112.506 171.848L115.294 124.861Z" fill="#40CC4D"/>
<path d="M30.8662 261.386V187.033H109.921" stroke="#191919" stroke-width="4.62" stroke-miterlimit="10"/>
<path d="M84.9762 259.036L30.9771 189.639" stroke="#191919" stroke-width="4.62" stroke-miterlimit="10"/>
<path d="M104.74 220.444L30.3867 188.447" stroke="#191919" stroke-width="4.62" stroke-miterlimit="10"/>
<path d="M85.923 186.564C84.1791 188.799 82.8989 191.359 82.1576 194.095C79.8169 202.787 83.9081 210.165 84.9766 211.976" stroke="#191919" stroke-width="4.62" stroke-miterlimit="10"/>
<path d="M62.4856 186.311C61.7051 188.17 61.3038 190.166 61.3052 192.183C61.3052 198.584 65.4878 202.889 66.5564 203.937" stroke="#191919" stroke-width="3.29" stroke-miterlimit="10"/>
<path d="M61.7833 202.635C59.8192 203.079 57.9644 203.913 56.3284 205.087C52.7924 207.802 50.4643 211.796 49.8457 216.211" stroke="#191919" stroke-width="3.29" stroke-miterlimit="10"/>
<path d="M50.8223 216.321C48.8828 215.535 46.8088 215.134 44.7161 215.141C38.0094 215.222 33.1042 220.056 32.0254 221.186" stroke="#191919" stroke-width="3.44" stroke-miterlimit="10"/>
<path d="M85.5876 210.5C82.1123 210.933 78.7572 212.051 75.7158 213.787C66.0579 219.344 63.188 229.378 62.5469 231.892" stroke="#191919" stroke-width="4.62" stroke-miterlimit="10"/>
<path d="M65.0698 234.081C61.5157 232.323 57.6488 231.285 53.6919 231.028C41.103 230.234 32.1065 237.908 29.9185 239.872" stroke="#191919" stroke-width="4.62" stroke-miterlimit="10"/>
<path d="M385.981 207.448V199.306C385.981 198.945 386.052 198.588 386.19 198.255C386.328 197.921 386.531 197.618 386.786 197.363C387.041 197.108 387.344 196.906 387.677 196.768C388.011 196.629 388.368 196.558 388.729 196.558C389.09 196.558 389.447 196.629 389.78 196.768C390.114 196.906 390.417 197.108 390.672 197.363C390.927 197.618 391.129 197.921 391.267 198.255C391.405 198.588 391.477 198.945 391.477 199.306V207.529C391.461 208.395 391.763 209.236 392.325 209.895C392.888 210.553 393.672 210.982 394.53 211.101C395.007 211.15 395.49 211.097 395.946 210.947C396.402 210.798 396.822 210.554 397.178 210.231C397.534 209.909 397.818 209.515 398.012 209.076C398.207 208.637 398.306 208.162 398.305 207.682V187.094H403.811V207.661C403.81 208.907 403.548 210.139 403.043 211.278C402.538 212.417 401.8 213.438 400.877 214.276C399.955 215.113 398.867 215.748 397.685 216.141C396.502 216.534 395.251 216.675 394.011 216.556C391.791 216.28 389.749 215.202 388.27 213.524C386.79 211.846 385.976 209.685 385.981 207.448Z" fill="#191919"/>
<path d="M192.283 328.554C190.939 326.53 188.87 325.099 186.503 324.554L186.177 324.483C178.351 322.712 173.303 316.28 172.947 315.324C172.479 314.102 172.489 332.523 176 333.642C178.107 334.314 179.532 333.49 182.106 334.66C183.871 335.537 185.3 336.966 186.177 338.731" fill="#191919"/>
<path d="M258.453 109.652C259.438 89.937 240.258 72.9568 215.615 71.7257C190.971 70.4945 170.195 85.4786 169.21 105.194C168.225 124.909 187.404 141.889 212.048 143.12C236.692 144.351 257.468 129.367 258.453 109.652Z" fill="#191919"/>
<path d="M192.188 121.277C198.64 121.247 203.848 116.297 203.819 110.221C203.79 104.145 198.536 99.2446 192.084 99.275C185.632 99.3054 180.424 104.255 180.453 110.331C180.481 116.407 185.735 121.308 192.188 121.277Z" fill="white"/>
<path d="M234.197 121.16C240.65 121.13 245.857 116.18 245.829 110.104C245.8 104.028 240.546 99.1274 234.094 99.1578C227.641 99.1882 222.434 104.138 222.462 110.214C222.491 116.29 227.745 121.191 234.197 121.16Z" fill="white"/>
<path d="M192.018 105.861C192.018 104.72 191.095 103.795 189.957 103.795C188.819 103.795 187.896 104.72 187.896 105.861V114.104C187.896 115.245 188.819 116.17 189.957 116.17C191.095 116.17 192.018 115.245 192.018 114.104V105.861Z" fill="#191919"/>
<path d="M234.147 106.029C234.142 104.888 233.215 103.967 232.076 103.973C230.938 103.978 230.02 104.907 230.025 106.048L230.064 114.292C230.07 115.433 230.997 116.353 232.135 116.348C233.273 116.342 234.191 115.413 234.186 114.272L234.147 106.029Z" fill="#191919"/>
<path d="M214.234 122.572C215.752 122.572 216.982 121.342 216.982 119.824C216.982 118.306 215.752 117.076 214.234 117.076C212.717 117.076 211.486 118.306 211.486 119.824C211.486 121.342 212.717 122.572 214.234 122.572Z" fill="white"/>
<path d="M247.687 173.101L195.998 172.561L197.667 138.926L236.004 136.016C236.148 143.073 238.34 149.935 242.314 155.769C245.519 160.491 247.341 163.972 247.565 169.671L247.687 173.101Z" fill="#191919"/>
<path d="M172.886 117.592L158.04 122.117C157.314 122.338 156.905 123.106 157.126 123.832C157.347 124.558 158.115 124.967 158.841 124.745L173.687 120.221C174.413 120 174.822 119.232 174.6 118.506C174.379 117.78 173.611 117.371 172.886 117.592Z" fill="#191919"/>
<path d="M167.776 131.232C167.685 131.076 167.626 130.904 167.602 130.726C167.578 130.547 167.589 130.366 167.635 130.192C167.682 130.017 167.762 129.854 167.872 129.711C167.982 129.568 168.119 129.449 168.275 129.359L183.459 120.617L184.833 122.999L169.649 131.741C169.333 131.921 168.959 131.969 168.608 131.873C168.256 131.778 167.958 131.547 167.776 131.232Z" fill="#191919"/>
<path d="M252.462 125.307C251.797 124.942 250.962 125.184 250.596 125.849C250.23 126.514 250.473 127.349 251.138 127.715L259.44 132.281C260.105 132.646 260.94 132.404 261.306 131.739C261.672 131.074 261.429 130.239 260.764 129.873L252.462 125.307Z" fill="#191919"/>
<path d="M242.805 127.996C242.188 127.554 241.33 127.695 240.887 128.311C240.445 128.928 240.586 129.786 241.203 130.229L254.325 139.644C254.942 140.087 255.8 139.945 256.242 139.329C256.685 138.712 256.544 137.854 255.927 137.412L242.805 127.996Z" fill="#191919"/>
<path d="M205.361 2.42213C205.491 1.87238 205.763 1.36659 206.151 0.955677C206.539 0.544765 207.028 0.243211 207.569 0.0814022C207.725 0.0378389 207.886 0.0105686 208.047 0C208.651 0.00207768 209.246 0.140451 209.789 0.404775C210.332 0.669099 210.808 1.05255 211.182 1.52655C214.165 4.50691 216.778 7.83488 218.967 11.4389C228.666 27.5796 232.482 37.492 232.482 37.492C235.073 45.4885 236.946 53.6998 238.08 62.0287C239.662 62.4208 241.221 62.8998 242.751 63.4637C243.575 63.7588 242.669 63.4637 262.403 75.3097C268.153 78.7699 274.941 82.8305 280.497 91.0739C283.276 95.1955 284.568 98.6354 283.662 101.943C283.38 103.006 282.89 104.003 282.221 104.876C281.552 105.749 280.717 106.482 279.765 107.031C277.007 108.456 274.381 106.919 271.124 105.179C267.053 102.981 262.504 101.658 258.556 99.073C250.211 93.6385 238.304 92.7429 224.015 91.6641C209.37 90.565 197.056 91.8778 184.009 93.2721C173.832 94.3509 168.744 94.9004 168.327 95.0022C163.798 96.0199 158.954 97.6686 152.634 96.7221C150.225 96.5531 147.975 95.4591 146.354 93.669C144.858 91.9084 143.24 88.6314 143.973 85.5274C144.991 81.4566 149.57 79.35 152.583 78.0371C170.81 70.1296 179.928 66.1809 183.918 65.2447C184.63 65.0717 185.648 64.8478 186.91 64.573C188.78 61.5341 190.394 58.3445 191.734 55.0371C193.915 49.4456 195.531 43.6498 196.557 37.7363C197.575 32.1694 198.868 26.623 200.343 21.1376L205.361 2.42213Z" fill="#624AC6"/>
<path d="M187.733 61.7361C191.738 64.0776 196.07 64.1772 200.246 64.7252C204.754 65.2632 209.27 65.6485 213.794 65.881C222.821 66.3429 231.861 66.1866 240.875 65.4127C243.345 65.2034 242.987 58.9563 240.509 59.1656C231.918 59.8979 223.303 60.0775 214.698 59.7036C210.491 59.511 206.286 59.1788 202.084 58.7072C197.994 58.2589 193.296 58.4781 189.354 56.1765C187.017 54.8115 185.373 60.3811 187.733 61.7561V61.7361Z" fill="white"/>
<path d="M253.731 88.7838C250.791 77.8871 246.417 67.4288 240.725 57.683C238.538 53.9599 236.161 50.3524 233.601 46.875C232.563 48.0623 231.545 49.348 230.548 50.7321C222.498 62.0285 220.625 74.5055 220.432 83.4002C229.694 83.9057 238.89 85.2477 247.91 87.4099L253.731 88.7838Z" fill="#191919"/>
<path d="M174.442 89.7098C177.465 74.3757 183.31 59.7369 191.682 46.5391C192.843 47.6965 193.943 48.9125 194.98 50.1824C203.773 60.909 206.815 74.4342 207.609 83.2983L200.587 83.6545C191.583 84.1145 182.732 86.1646 174.442 89.7098Z" fill="#191919"/>
<path d="M233.887 172.275C238.172 172.927 241.683 173.232 244.064 173.395C248.45 173.68 250.17 173.547 253.223 174.413C254.862 174.87 260.734 176.529 260.927 179.389C261.05 181.18 258.892 182.87 258.444 183.246C256.684 184.63 255.473 184.264 254.028 185.852C253.611 186.224 253.277 186.679 253.044 187.186C252.811 187.694 252.685 188.244 252.674 188.803C252.867 191.042 256.063 192.192 256.419 192.304C258.363 192.975 260.012 192.528 262.647 191.958C263.831 191.727 264.995 191.404 266.128 190.991C267.337 190.525 268.44 189.824 269.375 188.928C270.31 188.031 271.057 186.958 271.573 185.77V185.719C272.484 183.462 272.755 180.997 272.356 178.595C271.752 175.645 270.244 172.955 268.041 170.902C265.588 168.337 263.126 167.207 260.327 165.925C256.181 164.113 251.786 162.933 247.29 162.424C245.621 162.18 243.22 162.007 242.202 161.936L233.887 172.275Z" fill="#191919"/>
<path d="M197.605 162.67C200.097 162.67 202.486 163.66 204.247 165.421C206.009 167.183 206.999 169.572 206.999 172.063V172.847H188.212V172.063C188.212 169.572 189.202 167.183 190.963 165.421C192.725 163.66 195.114 162.67 197.605 162.67Z" fill="#191919"/>
<path d="M181.027 331.281C182.645 335.352 184.172 338.486 185.251 340.623C187.286 344.541 188.304 345.997 189.057 349.04C189.495 350.688 191.092 356.591 188.701 358.199C187.225 359.217 184.63 358.199 184.121 358.026C182.025 357.212 181.709 355.991 179.623 355.553C179.091 355.385 178.53 355.328 177.975 355.386C177.42 355.444 176.883 355.615 176.397 355.889C174.565 357.191 175.206 360.53 175.277 360.896C175.695 362.931 176.926 364.102 178.758 366.076C179.557 366.98 180.428 367.817 181.363 368.58C182.377 369.384 183.54 369.979 184.786 370.328C186.032 370.678 187.335 370.775 188.619 370.615H188.68C191.096 370.261 193.364 369.235 195.224 367.653C197.463 365.636 199.011 362.966 199.651 360.021C200.4 357.025 200.522 353.906 200.007 350.861C199.472 346.369 198.25 341.986 196.384 337.865C194.863 334.163 193.013 330.604 190.858 327.23L181.027 331.281Z" fill="#191919"/>
<path d="M188.223 268.421C189.208 248.707 170.029 231.726 145.385 230.495C120.742 229.264 99.9655 244.248 98.9806 263.963C97.9957 283.678 117.175 300.658 141.819 301.889C166.462 303.12 187.238 288.136 188.223 268.421Z" fill="#191919"/>
<path d="M121.972 280.043C128.425 280.013 133.632 275.063 133.604 268.987C133.575 262.911 128.321 258.01 121.869 258.041C115.416 258.071 110.209 263.021 110.237 269.097C110.266 275.173 115.52 280.073 121.972 280.043Z" fill="white"/>
<path d="M163.982 279.926C170.434 279.895 175.642 274.945 175.613 268.87C175.585 262.794 170.331 257.893 163.878 257.923C157.426 257.954 152.219 262.904 152.247 268.98C152.276 275.056 157.53 279.956 163.982 279.926Z" fill="white"/>
<path d="M123.967 264.91C123.962 263.769 123.035 262.848 121.897 262.854C120.758 262.859 119.84 263.788 119.846 264.929L119.885 273.172C119.89 274.313 120.817 275.234 121.955 275.229C123.093 275.223 124.011 274.294 124.006 273.153L123.967 264.91Z" fill="#191919"/>
<path d="M165.967 264.793C165.962 263.652 165.035 262.731 163.897 262.736C162.759 262.742 161.84 263.671 161.846 264.812L161.885 273.055C161.89 274.196 162.817 275.117 163.955 275.111C165.093 275.106 166.012 274.177 166.006 273.036L165.967 264.793Z" fill="#191919"/>
<path d="M144.013 281.333C145.531 281.333 146.761 280.103 146.761 278.586C146.761 277.068 145.531 275.838 144.013 275.838C142.496 275.838 141.266 277.068 141.266 278.586C141.266 280.103 142.496 281.333 144.013 281.333Z" fill="white"/>
<path d="M177.465 333.896L125.776 331.321L127.445 297.686L165.782 294.775C165.926 301.832 168.119 308.695 172.092 314.529C175.296 319.247 177.116 324.768 177.343 330.466L177.465 333.896Z" fill="#191919"/>
<path d="M102.661 276.354L87.8158 280.879C87.09 281.1 86.6808 281.868 86.902 282.594C87.1232 283.319 87.891 283.728 88.6169 283.507L103.463 278.983C104.188 278.761 104.597 277.994 104.376 277.268C104.155 276.542 103.387 276.133 102.661 276.354Z" fill="#191919"/>
<path d="M97.5552 289.993C97.4641 289.838 97.4048 289.666 97.3805 289.488C97.3563 289.309 97.3677 289.127 97.4141 288.953C97.4605 288.779 97.5408 288.616 97.6506 288.473C97.7604 288.33 97.8975 288.211 98.0539 288.121L113.238 279.379L114.612 281.76L99.4277 290.502C99.1118 290.683 98.7374 290.73 98.3863 290.635C98.0353 290.54 97.7364 290.309 97.5552 289.993Z" fill="#191919"/>
<path d="M182.25 284.065C181.585 283.699 180.75 283.942 180.384 284.607C180.019 285.272 180.261 286.107 180.926 286.473L189.228 291.039C189.893 291.404 190.728 291.162 191.094 290.497C191.46 289.832 191.217 288.997 190.552 288.631L182.25 284.065Z" fill="#191919"/>
<path d="M172.577 286.764C171.961 286.321 171.103 286.463 170.66 287.079C170.218 287.696 170.359 288.554 170.976 288.996L184.098 298.412C184.715 298.854 185.573 298.713 186.015 298.096C186.458 297.48 186.316 296.622 185.7 296.179L172.577 286.764Z" fill="#191919"/>
<path d="M183.51 250.598C180.57 239.702 176.196 229.243 170.504 219.497C168.317 215.774 165.939 212.167 163.38 208.689C162.342 209.877 161.324 211.163 160.327 212.547C152.277 223.843 150.404 236.32 150.211 245.215C159.472 245.72 168.669 247.062 177.689 249.224L183.51 250.598Z" fill="#191919"/>
<path d="M104.222 248.472C107.244 233.137 113.09 218.499 121.462 205.301C122.623 206.458 123.723 207.674 124.759 208.944C133.552 219.671 136.595 233.196 137.389 242.06L130.367 242.416C121.363 242.876 112.512 244.926 104.222 248.472Z" fill="#191919"/>
<path d="M127.384 321.43C129.875 321.43 132.264 322.419 134.026 324.181C135.787 325.943 136.777 328.332 136.777 330.823V331.607H117.99V330.823C117.99 328.332 118.98 325.943 120.741 324.181C122.503 322.419 124.892 321.43 127.384 321.43Z" fill="#191919"/>
<path d="M101.712 109.65C102.697 89.935 83.5173 72.9549 58.8736 71.7237C34.2299 70.4926 13.4538 85.4767 12.4689 105.192C11.484 124.907 30.6632 141.887 55.3069 143.118C79.9506 144.349 100.727 129.365 101.712 109.65Z" fill="#BA482A"/>
<path d="M77.4742 121.166C83.9266 121.136 89.134 116.186 89.1054 110.11C89.0768 104.034 83.8229 99.1333 77.3705 99.1637C70.9182 99.1941 65.7107 104.144 65.7393 110.22C65.768 116.296 71.0218 121.197 77.4742 121.166Z" fill="white"/>
<path d="M35.4542 121.283C41.9066 121.253 47.1141 116.303 47.0855 110.227C47.0569 104.151 41.8029 99.2505 35.3505 99.2809C28.8981 99.3113 23.6907 104.261 23.7193 110.337C23.748 116.413 29.0018 121.314 35.4542 121.283Z" fill="white"/>
<path d="M37.4492 106.15C37.4438 105.009 36.5167 104.088 35.3786 104.094C34.2404 104.099 33.3222 105.028 33.3276 106.169L33.3665 114.413C33.3718 115.554 34.2987 116.474 35.4369 116.469C36.5751 116.464 37.4934 115.534 37.488 114.393L37.4492 106.15Z" fill="#191919"/>
<path d="M79.4586 106.035C79.4532 104.894 78.5261 103.973 77.388 103.979C76.2498 103.984 75.3315 104.913 75.3369 106.054L75.3757 114.297C75.3811 115.438 76.3081 116.359 77.4463 116.354C78.5845 116.348 79.5028 115.419 79.4974 114.278L79.4586 106.035Z" fill="#191919"/>
<path d="M57.5085 122.572C59.0261 122.572 60.2563 121.342 60.2563 119.824C60.2563 118.306 59.0261 117.076 57.5085 117.076C55.991 117.076 54.7607 118.306 54.7607 119.824C54.7607 121.342 55.991 122.572 57.5085 122.572Z" fill="white"/>
<path d="M90.9603 175.136L39.2715 172.561L40.9405 138.926L79.2772 136.016C79.4214 143.073 81.6137 149.935 85.587 155.769C88.7916 160.487 90.6106 166.008 90.8382 171.706L90.9603 175.136Z" fill="#BA482A"/>
<path d="M16.16 117.59L1.31431 122.115C0.588487 122.336 0.17933 123.104 0.400543 123.83C0.621755 124.556 1.38957 124.965 2.11539 124.743L16.9611 120.219C17.6869 119.998 18.096 119.23 17.8748 118.504C17.6535 117.778 16.8858 117.369 16.16 117.59Z" fill="#BA482A"/>
<path d="M11.0503 131.232C10.9592 131.076 10.8999 130.904 10.8757 130.726C10.8514 130.547 10.8628 130.366 10.9092 130.192C10.9556 130.017 11.0359 129.854 11.1457 129.711C11.2556 129.568 11.3927 129.449 11.549 129.359L26.733 120.617L28.107 122.999L12.9229 131.741C12.607 131.921 12.2325 131.969 11.8814 131.873C11.5304 131.778 11.2315 131.547 11.0503 131.232Z" fill="#BA482A"/>
<path d="M95.7428 125.317C95.078 124.951 94.2426 125.194 93.8769 125.859C93.5113 126.524 93.7538 127.359 94.4187 127.725L102.721 132.291C103.386 132.656 104.221 132.414 104.587 131.749C104.952 131.084 104.71 130.249 104.045 129.883L95.7428 125.317Z" fill="#BA482A"/>
<path d="M86.0717 128C85.4552 127.558 84.5968 127.699 84.1544 128.315C83.7121 128.932 83.8533 129.79 84.4698 130.233L97.5922 139.648C98.2087 140.09 99.0671 139.949 99.5094 139.333C99.9518 138.716 99.8106 137.858 99.1941 137.416L86.0717 128Z" fill="#BA482A"/>
<path d="M97.0061 91.8366C94.0659 80.9398 89.6923 70.4815 83.9999 60.7357C81.8132 57.0126 79.4354 53.4051 76.876 49.9277C75.8379 51.115 74.8202 52.4008 73.8229 53.7848C65.7729 65.0813 63.9004 77.5582 63.707 86.4529C72.9685 86.9584 82.1652 88.3005 91.1849 90.4627L97.0061 91.8366Z" fill="#BA482A"/>
<path d="M17.7173 89.7098C20.7394 74.3757 26.5854 59.7369 34.9572 46.5391C36.1177 47.6965 37.2182 48.9125 38.2545 50.1824C47.0474 60.909 50.0904 74.4342 50.8842 83.2983L43.862 83.6545C34.8581 84.1145 26.0066 86.1646 17.7173 89.7098Z" fill="#BA482A"/>
<path d="M40.8797 162.67C43.371 162.67 45.7602 163.66 47.5218 165.421C49.2834 167.183 50.2731 169.572 50.2731 172.063V172.847H31.4863V172.063C31.4863 169.572 32.476 167.183 34.2376 165.421C35.9992 163.66 38.3884 162.67 40.8797 162.67Z" fill="#BA482A"/>
<path d="M70.7485 172.287C75.0432 172.949 78.5543 173.254 80.9255 173.407C85.3118 173.702 87.0317 173.559 90.0848 174.424C91.7233 174.892 97.6057 176.541 97.7991 179.401C97.9212 181.192 95.7636 182.891 95.3056 183.258C93.5552 184.652 92.334 184.276 90.8888 185.873C90.474 186.245 90.1399 186.698 89.907 187.204C89.6742 187.71 89.5478 188.258 89.5353 188.815C89.7389 191.064 92.9344 192.203 93.2804 192.326C95.2242 192.997 96.8831 192.549 99.5087 191.98C100.695 191.738 101.859 191.397 102.989 190.962C104.198 190.5 105.303 189.801 106.238 188.906C107.173 188.012 107.92 186.939 108.434 185.751V185.69C109.356 183.436 109.628 180.967 109.218 178.566C108.618 175.611 107.109 172.918 104.903 170.862C102.45 168.298 99.9972 167.178 97.1985 165.886C93.0534 164.073 88.6583 162.896 84.1619 162.395C82.4827 162.151 81.1088 162.019 80.0911 161.947L70.7485 172.287Z" fill="#BA482A"/>
<path d="M276.035 284.292C276.774 269.516 262.401 256.788 243.932 255.865C225.462 254.941 209.891 266.171 209.152 280.948C208.413 295.724 222.787 308.452 241.256 309.375C259.725 310.299 275.297 299.069 276.035 284.292Z" fill="#191919"/>
<path d="M225.046 295.212C229.874 295.189 233.771 291.485 233.749 286.938C233.728 282.391 229.797 278.723 224.968 278.746C220.14 278.769 216.244 282.473 216.265 287.02C216.287 291.567 220.218 295.235 225.046 295.212Z" fill="white"/>
<path d="M257.053 295.113C261.881 295.09 265.777 291.385 265.756 286.838C265.734 282.291 261.803 278.624 256.975 278.646C252.147 278.669 248.25 282.374 248.272 286.921C248.293 291.468 252.224 295.135 257.053 295.113Z" fill="white"/>
<path d="M224.991 281.239L224.981 281.239C223.936 281.244 223.092 282.096 223.097 283.141L223.133 290.733C223.138 291.778 223.989 292.622 225.035 292.617L225.045 292.617C226.09 292.612 226.934 291.76 226.929 290.715L226.893 283.123C226.888 282.078 226.037 281.234 224.991 281.239Z" fill="#191919"/>
<path d="M256.998 281.231L256.988 281.231C255.942 281.236 255.099 282.088 255.104 283.133L255.139 290.725C255.144 291.771 255.996 292.614 257.041 292.609L257.051 292.609C258.097 292.604 258.94 291.753 258.936 290.707L258.9 283.115C258.895 282.07 258.043 281.226 256.998 281.231Z" fill="#191919"/>
<path d="M241.856 296.215C242.991 296.215 243.911 295.295 243.911 294.159C243.911 293.024 242.991 292.104 241.856 292.104C240.72 292.104 239.8 293.024 239.8 294.159C239.8 295.295 240.72 296.215 241.856 296.215Z" fill="white"/>
<path d="M266.9 333.896L228.228 331.973L229.49 306.795L258.178 304.617C258.289 309.899 259.93 315.036 262.901 319.404C265.303 322.933 266.664 327.066 266.829 331.332L266.9 333.896Z" fill="#191919"/>
<path d="M212.573 292.499L201.465 295.884C200.922 296.049 200.616 296.624 200.782 297.167C200.947 297.71 201.521 298.016 202.064 297.85L213.172 294.465C213.715 294.3 214.021 293.725 213.855 293.182C213.69 292.639 213.116 292.333 212.573 292.499Z" fill="#191919"/>
<path d="M207.09 302.739C207.021 302.623 206.976 302.494 206.958 302.359C206.939 302.225 206.948 302.089 206.983 301.958C207.018 301.827 207.079 301.705 207.162 301.598C207.245 301.491 207.348 301.401 207.466 301.335L218.834 294.791L219.852 296.572L208.494 303.126C208.377 303.194 208.247 303.239 208.113 303.256C207.978 303.274 207.841 303.265 207.71 303.229C207.58 303.192 207.457 303.131 207.351 303.047C207.244 302.963 207.155 302.858 207.09 302.739Z" fill="#191919"/>
<path d="M270.472 298.255C269.974 297.981 269.349 298.162 269.076 298.66C268.802 299.157 268.984 299.782 269.481 300.056L275.697 303.474C276.194 303.748 276.819 303.566 277.093 303.069C277.366 302.571 277.185 301.947 276.687 301.673L270.472 298.255Z" fill="#191919"/>
<path d="M263.258 300.32C262.797 299.989 262.155 300.094 261.824 300.555C261.493 301.017 261.599 301.659 262.06 301.99L271.883 309.038C272.344 309.369 272.986 309.263 273.317 308.802C273.648 308.341 273.543 307.699 273.081 307.368L263.258 300.32Z" fill="#191919"/>
<path d="M272.681 320.341C275.632 321.715 277.942 322.977 279.499 323.873C282.359 325.511 283.397 326.325 285.605 327.058C286.816 327.445 291.162 328.849 292.465 327.15C293.289 326.132 292.658 324.096 292.465 323.72C291.946 322.122 291.05 321.837 290.796 320.26C290.691 319.855 290.67 319.433 290.735 319.02C290.799 318.607 290.948 318.211 291.172 317.858C292.19 316.545 294.694 317.156 294.958 317.227C296.454 317.614 297.299 318.581 298.703 320.026C299.345 320.655 299.934 321.335 300.464 322.061C301.026 322.85 301.424 323.744 301.636 324.69C301.847 325.635 301.867 326.613 301.695 327.567V327.618C301.33 329.407 300.474 331.06 299.222 332.391C297.631 334.001 295.573 335.069 293.34 335.444C291.068 335.884 288.73 335.853 286.471 335.352C283.138 334.761 279.914 333.674 276.904 332.126C275.754 331.577 274.197 330.701 273.546 330.335L272.681 320.341Z" fill="#191919"/>
<path d="M229.419 324.564C231.284 324.564 233.072 325.305 234.391 326.624C235.71 327.943 236.451 329.732 236.451 331.597V332.187H222.386V331.597C222.386 329.732 223.127 327.943 224.446 326.624C225.765 325.305 227.553 324.564 229.419 324.564Z" fill="#191919"/>
<path d="M275.793 278.371C275.304 277.353 274.49 275.521 273.513 273.282C270.643 266.627 267.784 259.096 263.784 250.007C261.413 244.624 259.998 241.764 258.461 241.866C257.322 241.978 256.619 243.667 256.182 244.756C252.681 253.457 247.755 268.998 248.61 269.181C252.029 269.81 255.494 270.151 258.97 270.199C262.453 270.24 265.899 270.906 269.147 272.163" fill="#191919"/>
<path d="M209.583 277.668C210.153 276.518 211.069 274.615 212.077 272.244C215.293 264.611 216.453 259.014 220.218 248.359C222.254 242.71 223.475 239.891 224.981 239.932C226.172 239.932 227.017 241.744 227.454 242.66C236.186 261.08 238.985 265.66 236.909 267.441C236.074 268.153 235.331 267.654 231.647 267.705C228.274 267.758 224.92 268.23 221.664 269.11" fill="#191919"/>
<path d="M240.796 316.342H269.77C273.179 316.342 276.449 317.696 278.859 320.107C281.27 322.517 282.624 325.786 282.624 329.195H240.796V316.342Z" fill="#191919"/>
<path d="M411.087 172.846H29.4502V188.111H411.087V172.846Z" fill="#FE8E4C" stroke="#191919" stroke-width="3.35" stroke-miterlimit="10"/>
<path d="M370.38 328.555H115.955V340.767H370.38V328.555Z" fill="#FE8E4C"/>
<path d="M372.09 342.476H114.246V326.844H372.09V342.476ZM117.666 339.056H368.671V330.263H117.666V339.056Z" fill="#191919"/>
<path d="M344.083 154.416H385.676C390.57 154.416 395.263 156.36 398.723 159.82C402.183 163.28 404.127 167.973 404.127 172.867H344.083V154.416Z" fill="#191919"/>
<path d="M345.058 172.778C363.321 172.393 377.876 160.236 377.567 145.626C377.258 131.015 362.203 119.484 343.94 119.87C325.678 120.256 311.123 132.412 311.431 147.023C311.74 161.633 326.795 173.164 345.058 172.778Z" fill="#191919"/>
<path d="M341.029 164.725C342.153 164.725 343.064 163.814 343.064 162.69C343.064 161.566 342.153 160.654 341.029 160.654C339.905 160.654 338.994 161.566 338.994 162.69C338.994 163.814 339.905 164.725 341.029 164.725Z" fill="white"/>
<path d="M314.877 156.217L304.151 160.336C303.626 160.538 303.364 161.127 303.566 161.651C303.767 162.176 304.356 162.438 304.88 162.236L315.606 158.117C316.131 157.915 316.393 157.327 316.192 156.802C315.99 156.277 315.401 156.015 314.877 156.217Z" fill="#191919"/>
<path d="M311.802 166.466C311.727 166.355 311.674 166.23 311.648 166.099C311.621 165.968 311.62 165.833 311.646 165.701C311.671 165.57 311.722 165.445 311.796 165.333C311.87 165.222 311.965 165.126 312.076 165.051L322.834 157.795L323.973 159.484L313.216 166.741C313.105 166.816 312.981 166.868 312.85 166.895C312.719 166.921 312.583 166.922 312.452 166.897C312.321 166.871 312.196 166.82 312.084 166.746C311.972 166.672 311.876 166.577 311.802 166.466Z" fill="#191919"/>
<path d="M353.558 159.86C355.254 159.594 356.833 158.833 358.097 157.672C358.225 157.552 358.326 157.405 358.393 157.242C358.459 157.079 358.49 156.903 358.482 156.727C358.474 156.551 358.429 156.379 358.348 156.222C358.267 156.066 358.154 155.928 358.015 155.82C357.798 155.635 357.522 155.533 357.237 155.533C356.952 155.533 356.676 155.635 356.458 155.82C355.556 156.662 354.421 157.215 353.202 157.407C351.642 157.607 350.064 157.219 348.775 156.318C348.536 156.16 348.249 156.091 347.965 156.122C347.68 156.154 347.416 156.285 347.218 156.491C347.096 156.62 347.004 156.772 346.947 156.939C346.89 157.106 346.869 157.284 346.886 157.459C346.904 157.635 346.959 157.805 347.047 157.957C347.136 158.11 347.257 158.242 347.401 158.344C349.194 159.596 351.388 160.137 353.558 159.86Z" fill="white"/>
<path d="M329.133 159.86C330.828 159.594 332.408 158.833 333.672 157.672C333.8 157.552 333.901 157.405 333.968 157.242C334.034 157.079 334.064 156.903 334.057 156.727C334.049 156.551 334.003 156.379 333.923 156.222C333.842 156.066 333.729 155.928 333.59 155.82C333.373 155.635 333.097 155.533 332.812 155.533C332.526 155.533 332.25 155.635 332.033 155.82C331.13 156.662 329.996 157.215 328.776 157.407C327.217 157.607 325.639 157.219 324.349 156.318C324.111 156.16 323.824 156.091 323.54 156.122C323.255 156.154 322.99 156.285 322.792 156.491C322.671 156.62 322.579 156.772 322.521 156.939C322.464 157.106 322.444 157.284 322.461 157.459C322.478 157.635 322.533 157.805 322.622 157.957C322.711 158.11 322.831 158.242 322.976 158.344C324.768 159.596 326.963 160.137 329.133 159.86Z" fill="white"/>
<path d="M354.768 169.559C354.768 167.451 353.059 165.742 350.952 165.742C348.844 165.742 347.135 167.451 347.135 169.559V182.28C347.135 184.388 348.844 186.096 350.952 186.096C353.059 186.096 354.768 184.388 354.768 182.28V169.559Z" fill="#191919"/>
<path d="M343.574 169.559C343.574 167.451 341.866 165.742 339.758 165.742C337.65 165.742 335.941 167.451 335.941 169.559V182.28C335.941 184.388 337.65 186.096 339.758 186.096C341.866 186.096 343.574 184.388 343.574 182.28V169.559Z" fill="#191919"/>
<path d="M367.124 77.3648C367.114 76.9463 366.994 76.5378 366.776 76.1805C366.558 75.8232 366.25 75.5296 365.882 75.3294L365.557 75.1971C365.119 75.1086 364.666 75.1175 364.232 75.223C363.798 75.3285 363.392 75.5281 363.043 75.8077C360.445 77.5164 358.055 79.5211 355.919 81.7816C346.404 91.9586 342.109 98.5533 342.109 98.5533C338.987 103.937 336.357 109.591 334.252 115.447C333.044 115.486 331.838 115.588 330.64 115.752C330.009 115.844 330.701 115.752 314.58 121.289C309.879 122.897 304.342 124.79 299.04 129.898C296.394 132.453 294.969 134.732 295.061 137.267C295.098 138.083 295.297 138.884 295.646 139.623C295.996 140.362 296.489 141.025 297.096 141.571C298.867 143.027 301.014 142.324 303.64 141.571C306.958 140.615 310.428 140.35 313.685 139.109C320.564 136.463 329.327 137.663 339.829 139.109C350.607 140.584 359.318 143.444 368.539 146.467C375.744 148.838 379.336 150.018 379.632 150.151C382.746 151.616 385.992 153.54 390.714 153.835C392.486 154.087 394.287 153.646 395.742 152.603C396.613 151.957 397.332 151.127 397.847 150.172C398.362 149.217 398.662 148.16 398.724 147.077C398.663 143.963 395.67 141.734 393.635 140.32C381.657 131.771 375.673 127.497 372.925 126.194L370.89 125.248C370.008 122.755 369.328 120.196 368.854 117.594C368.147 113.205 367.877 108.756 368.05 104.313C368.142 100.11 368.05 95.8971 367.887 91.7041L367.124 77.3648Z" fill="#624AC6"/>
<path d="M331.273 114.68C333.442 117.203 336.015 118.151 338.46 119.352C341.106 120.697 343.77 121.891 346.451 122.934C351.8 125.067 357.219 126.751 362.683 127.979C364.182 128.322 364.613 123.67 363.088 123.327C357.878 122.142 352.709 120.543 347.602 118.534C345.115 117.552 342.635 116.473 340.165 115.296C337.759 114.145 334.934 113.358 332.805 110.876C331.518 109.413 330.006 113.156 331.273 114.64V114.68Z" fill="white"/>
<path d="M376.802 143.861C376 135.545 374.098 127.373 371.143 119.559C370.026 116.563 368.752 113.628 367.327 110.766C366.421 111.509 365.515 112.323 364.63 113.208C357.364 120.454 354.453 129.339 353.201 135.801C359.905 137.312 366.459 139.428 372.782 142.121L376.802 143.861Z" fill="#191919"/>
<path d="M316.035 134.622C319.005 126.809 323.003 119.427 327.922 112.67C329.805 110.088 331.819 107.605 333.957 105.23C334.629 106.187 335.29 107.215 335.911 108.284C340.999 117.199 341.549 127.447 340.999 134.011L335.83 133.411C329.2 132.629 322.483 133.032 315.995 134.601L316.035 134.622Z" fill="#191919"/>
<path d="M120.84 82.8809H111.884L117.257 91.1039L112.484 173.354H121.43H124.717H133.673L128.9 91.1039L134.273 82.8809H125.317H120.84Z" stroke="#191919" stroke-width="2.43" stroke-miterlimit="10"/>
<path d="M372.09 326.844L375.469 331.423V343.819H117.991L114.246 342.476H370.381L372.09 326.844Z" fill="#191919"/>
<path d="M412.798 171.137L416.177 176.266V190.147H158.699L154.954 188.641H411.088L412.798 171.137Z" fill="#191919"/>
<path d="M125.114 122.979C126.239 122.979 127.15 122.068 127.15 120.944C127.15 119.819 126.239 118.908 125.114 118.908C123.99 118.908 123.079 119.819 123.079 120.944C123.079 122.068 123.99 122.979 125.114 122.979Z" fill="#40CC4D"/>
<path d="M120.535 117.891C121.378 117.891 122.061 117.208 122.061 116.364C122.061 115.521 121.378 114.838 120.535 114.838C119.692 114.838 119.008 115.521 119.008 116.364C119.008 117.208 119.692 117.891 120.535 117.891Z" fill="#40CC4D"/>
<path d="M363.765 235.943H347.126C346.845 235.943 346.617 236.171 346.617 236.452V326.234C346.617 326.515 346.845 326.742 347.126 326.742H363.765C364.046 326.742 364.274 326.515 364.274 326.234V236.452C364.274 236.171 364.046 235.943 363.765 235.943Z" fill="#A8877D" stroke="#191919" stroke-width="3.35" stroke-miterlimit="10"/>
<path d="M347.879 241.408H363.857" stroke="#191919" stroke-width="2.48" stroke-miterlimit="10"/>
<path d="M345.955 319.904H363.256" stroke="#191919" stroke-width="2.84" stroke-miterlimit="10"/>
<path d="M345.284 264.203L329.132 260.206C328.859 260.139 328.583 260.305 328.516 260.578L313.006 323.25C312.939 323.523 313.105 323.799 313.378 323.866L329.53 327.863C329.803 327.931 330.079 327.765 330.146 327.492L345.656 264.82C345.723 264.547 345.557 264.271 345.284 264.203Z" fill="#754637" stroke="#191919" stroke-width="3.35" stroke-miterlimit="10"/>
<path d="M328.197 265.508L343.696 269.345" stroke="#191919" stroke-width="2.48" stroke-miterlimit="10"/>
<path d="M315.069 318.561L330.579 322.397" stroke="#191919" stroke-width="2.48" stroke-miterlimit="10"/>
<path d="M351.055 308.882L360.092 304.363" stroke="#191919" stroke-width="1.55" stroke-miterlimit="10"/>
<path d="M351.055 312.271L360.092 307.752" stroke="#191919" stroke-width="1.55" stroke-miterlimit="10"/>
<path d="M353.873 303.234L357.262 297.586" stroke="#191919" stroke-width="1.55" stroke-miterlimit="10"/>
<path d="M351.055 294.197L360.092 296.457" stroke="#191919" stroke-width="1.55" stroke-miterlimit="10"/>
<path d="M357.832 290.807L353.313 288.548L357.832 285.159L353.313 282.9L356.702 280.641" stroke="#191919" stroke-width="1.55" stroke-miterlimit="10"/>
<path d="M349.924 279.51L353.313 276.121L354.443 278.38L361.221 276.121" stroke="#191919" stroke-width="1.55" stroke-miterlimit="10"/>
<path d="M351.614 272.732C351.614 272.732 353.873 268.214 353.873 269.343C353.873 270.473 357.262 273.862 357.262 273.862L358.392 270.473L359.521 273.862" stroke="#191919" stroke-width="1.55" stroke-miterlimit="10"/>
<path d="M351.614 267.085V263.696H359.521V260.307" stroke="#191919" stroke-width="1.55" stroke-miterlimit="10"/>
<path d="M351.055 252.4L352.184 254.659L354.444 252.4L352.184 250.141L351.055 252.4Z" stroke="#191919" stroke-width="1.55" stroke-miterlimit="10"/>
<path d="M360.092 254.66L358.962 252.4L356.703 254.66L358.962 256.919L360.092 254.66Z" stroke="#191919" stroke-width="1.55" stroke-miterlimit="10"/>
</svg>
