<svg width="64" height="43" viewBox="0 0 64 43" fill="none" xmlns="http://www.w3.org/2000/svg">
<path d="M14.5 5.5L18 5H30.5L44 5.5L46.5 8H37.5L40.5 16.5L47.5 34L50 40L47.5 42H45L25.5 42.5L19 41.5L18 38.5H24.5L21.5 30.5L15.5 15.5L13 9L14.5 5.5Z" fill="#F9F0EB" stroke="#F9F0EB"/>
<path d="M37.0154 8L48.7981 38.3802C49.3854 39.5464 48.6479 41.2779 47.1508 41.8744L46.8328 42H22" stroke="#624AC6" stroke-width="2" stroke-miterlimit="10"/>
<path d="M24.2877 38.48H18.0665C17.9753 39.1027 18.0761 39.7386 18.3553 40.302C18.9863 41.4988 20.5016 42.1687 22.168 41.9633L22.488 41.8382C23.9944 41.2443 24.7365 39.5205 24.1455 38.3594L13.1783 9.89895L13.0939 9.65781C12.6495 7.63481 13.827 5.63859 15.6801 5.259L16.0757 5.17414C17.9287 4.77669 19.7951 6.10305 20.2262 8.12605H45.1734H46C45.5556 6.10305 43.8403 5.44656 41.8495 5.17414L37.0102 5H19.844L16.0757 5.18756" stroke="#624AC6" stroke-width="2" stroke-miterlimit="10"/>
<path d="M21 14H35Z" fill="#624AC6"/>
<path d="M21 14H35" stroke="#624AC6" stroke-width="2" stroke-miterlimit="10"/>
<path d="M23 19H37Z" fill="#624AC6"/>
<path d="M23 19H37" stroke="#624AC6" stroke-width="2" stroke-miterlimit="10"/>
<path d="M24 23H39Z" fill="#624AC6"/>
<path d="M24 23H39" stroke="#624AC6" stroke-width="2" stroke-miterlimit="10"/>
<path d="M27 28H41Z" fill="#624AC6"/>
<path d="M27 28H41" stroke="#624AC6" stroke-width="2" stroke-miterlimit="10"/>
<path d="M57.999 3.10083C58.6846 4.30861 59.6874 5.31352 60.8945 6.00063C59.688 6.68741 58.6865 7.69202 58.001 8.90031C57.3154 7.69287 56.3126 6.68813 55.1055 6.00109C56.312 5.31423 57.3135 4.30946 57.999 3.10083Z" fill="white" stroke="#624AC6" stroke-width="2"/>
<path d="M4.49932 12.8032C4.94505 13.4758 5.52221 14.0539 6.19436 14.5005C5.52263 14.9469 4.94614 15.525 4.50068 16.1978C4.05495 15.5253 3.47779 14.9473 2.80564 14.5008C3.47737 14.0543 4.05386 13.4761 4.49932 12.8032Z" fill="#624AC6" stroke="#624AC6" stroke-width="2"/>
<path d="M52.6903 17.0007C53.1976 16.641 53.6407 16.1968 53.9994 15.6885C54.3585 16.1966 54.802 16.6408 55.3097 17.0004C54.8024 17.36 54.3593 17.8042 54.0006 18.3124C53.6415 17.8044 53.198 17.3603 52.6903 17.0007Z" fill="#624AC6" stroke="#624AC6" stroke-width="2"/>
</svg>
