<svg width="37" height="46" viewBox="0 0 37 46" fill="none" xmlns="http://www.w3.org/2000/svg">
<path d="M24.2332 10.9682L24.2381 10.9646C24.5999 10.6926 24.9492 10.4218 25.2915 10.1563C26.2488 9.41399 27.1518 8.71381 28.1225 8.14861C29.3999 7.40484 30.6687 6.97872 32.0801 7.10901L32.1373 7.11429L32.1948 7.11306C32.6011 7.10438 33.0022 7.20392 33.3532 7.4001C33.715 7.67509 34.0085 8.28233 34.0389 9.46543C34.0691 10.6449 33.8279 12.1543 33.4007 13.8553C32.5495 17.2442 31.0304 21.1308 29.8437 24.1667L29.8398 24.1768C29.8396 24.1772 29.8395 24.1775 29.8394 24.1778C28.446 27.7225 27.1131 30.5144 25.9868 32.8734C25.6049 33.6733 25.2467 34.4234 24.9181 35.1362C23.6448 37.8978 22.7597 40.2002 22.9346 42.5227L22.9345 42.5227L22.9353 42.5314C22.9481 42.6842 22.9641 42.8998 22.9344 43.1054C22.9199 43.2054 22.9007 43.2619 22.8883 43.2906C22.83 43.2983 22.6479 43.3095 22.2528 43.1835C21.7293 43.0167 21.0793 42.6855 20.3729 42.2517C18.9704 41.3904 17.5456 40.2511 16.7902 39.6455C16.79 39.6453 16.7897 39.6451 16.7895 39.645L16.6933 39.5674C13.7008 37.1562 10.4297 34.5206 8.06609 31.8064C5.64139 29.022 4.42923 26.445 5.02699 24.1345C5.2507 23.3389 5.86731 22.5049 7.22066 21.3701C8.5751 20.2345 10.5214 18.9133 13.2173 17.0972C16.2583 15.0492 17.7455 14.4398 19.0663 13.901L19.0803 13.8953C20.4955 13.318 21.7671 12.7993 24.2332 10.9682Z" fill="#FFD98C" stroke="#624AC6" stroke-width="2"/>
<path d="M19.5206 19.6795C21.2203 20.1182 22.9676 19.1456 23.4234 17.507C23.8791 15.8685 22.8706 14.1844 21.1709 13.7457C19.4712 13.3069 17.7238 14.2795 17.2681 15.9181C16.8124 17.5566 17.8208 19.2407 19.5206 19.6795Z" fill="#EB6A57" stroke="#624AC6" stroke-width="2" stroke-miterlimit="10"/>
<path d="M28.8471 24.309C28.4371 24.0847 27.9962 23.9173 27.5376 23.8118C26.1644 23.5105 24.723 23.7474 23.5307 24.4705C22.3384 25.1935 21.4929 26.3434 21.18 27.6673C20.5405 30.3726 22.7071 32.7276 25.0123 33.7584" fill="#EB6A57"/>
<path d="M28.8471 24.309C28.4371 24.0847 27.9962 23.9173 27.5376 23.8118C26.1644 23.5105 24.723 23.7474 23.5307 24.4705C22.3384 25.1935 21.4929 26.3434 21.18 27.6673C20.5405 30.3726 22.7071 32.7276 25.0123 33.7584" stroke="#624AC6" stroke-width="2" stroke-miterlimit="10"/>
<path d="M8.56817 21.0503C7.44581 21.8971 6.58844 23.0764 6.11555 24.4239C4.6347 30.0728 11.4046 35.912 16.8398 40.601C18.1906 41.7659 22.1341 45.1475 23.4769 44.1056C24.013 43.6928 23.9583 42.7354 23.9418 42.4343C23.9189 41.5826 24.0219 40.7262 24.247 39.895C19.3145 37.1539 15.1317 33.1967 12.0438 28.3498C10.6175 26.075 9.45146 23.6261 8.56817 21.0503Z" fill="#EB6A57" stroke="#624AC6" stroke-width="2" stroke-miterlimit="10"/>
</svg>
