<svg width="691" height="391" viewBox="0 0 691 391" fill="none" xmlns="http://www.w3.org/2000/svg">
<circle cx="363" cy="222" r="5" fill="#624AC6" fill-opacity="0.18"/>
<circle cx="179" cy="144" r="5" fill="#624AC6" fill-opacity="0.18"/>
<path d="M110.549 213.927C110.848 213.006 112.152 213.006 112.451 213.927L112.959 215.491C113.093 215.903 113.477 216.182 113.91 216.182H115.555C116.524 216.182 116.927 217.422 116.143 217.991L114.812 218.958C114.462 219.213 114.315 219.664 114.449 220.076L114.957 221.641C115.257 222.562 114.202 223.328 113.418 222.759L112.088 221.792C111.737 221.537 111.263 221.537 110.912 221.792L109.582 222.759C108.798 223.328 107.743 222.562 108.043 221.641L108.551 220.076C108.685 219.664 108.538 219.213 108.188 218.958L106.857 217.991C106.073 217.422 106.476 216.182 107.445 216.182H109.09C109.523 216.182 109.907 215.903 110.041 215.491L110.549 213.927Z" fill="#624AC6" fill-opacity="0.18"/>
<path d="M482.549 248.927C482.848 248.006 484.152 248.006 484.451 248.927L484.959 250.491C485.093 250.903 485.477 251.182 485.91 251.182H487.555C488.524 251.182 488.927 252.422 488.143 252.991L486.812 253.958C486.462 254.213 486.315 254.664 486.449 255.076L486.957 256.641C487.257 257.562 486.202 258.328 485.418 257.759L484.088 256.792C483.737 256.537 483.263 256.537 482.912 256.792L481.582 257.759C480.798 258.328 479.743 257.562 480.043 256.641L480.551 255.076C480.685 254.664 480.538 254.213 480.188 253.958L478.857 252.991C478.073 252.422 478.476 251.182 479.445 251.182H481.09C481.523 251.182 481.907 250.903 482.041 250.491L482.549 248.927Z" fill="#624AC6" fill-opacity="0.18"/>
<path d="M640.549 378.927C640.848 378.006 642.152 378.006 642.451 378.927L642.959 380.491C643.093 380.903 643.477 381.182 643.91 381.182H645.555C646.524 381.182 646.927 382.422 646.143 382.991L644.812 383.958C644.462 384.213 644.315 384.664 644.449 385.076L644.957 386.641C645.257 387.562 644.202 388.328 643.418 387.759L642.088 386.792C641.737 386.537 641.263 386.537 640.912 386.792L639.582 387.759C638.798 388.328 637.743 387.562 638.043 386.641L638.551 385.076C638.685 384.664 638.538 384.213 638.188 383.958L636.857 382.991C636.073 382.422 636.476 381.182 637.445 381.182H639.09C639.523 381.182 639.907 380.903 640.041 380.491L640.549 378.927Z" fill="#624AC6" fill-opacity="0.18"/>
<path d="M640.549 91.9271C640.848 91.0057 642.152 91.0057 642.451 91.9271L642.959 93.4914C643.093 93.9034 643.477 94.1824 643.91 94.1824H645.555C646.524 94.1824 646.927 95.422 646.143 95.9914L644.812 96.9582C644.462 97.2128 644.315 97.6642 644.449 98.0762L644.957 99.6406C645.257 100.562 644.202 101.328 643.418 100.759L642.088 99.7918C641.737 99.5372 641.263 99.5372 640.912 99.7918L639.582 100.759C638.798 101.328 637.743 100.562 638.043 99.6406L638.551 98.0762C638.685 97.6642 638.538 97.2128 638.188 96.9582L636.857 95.9914C636.073 95.422 636.476 94.1824 637.445 94.1824H639.09C639.523 94.1824 639.907 93.9034 640.041 93.4914L640.549 91.9271Z" fill="#624AC6" fill-opacity="0.18"/>
<path d="M34.5489 378.927C34.8483 378.006 36.1517 378.006 36.4511 378.927L36.9593 380.491C37.0932 380.903 37.4772 381.182 37.9104 381.182H39.5552C40.524 381.182 40.9267 382.422 40.143 382.991L38.8123 383.958C38.4618 384.213 38.3152 384.664 38.449 385.076L38.9573 386.641C39.2567 387.562 38.2022 388.328 37.4185 387.759L36.0878 386.792C35.7373 386.537 35.2627 386.537 34.9122 386.792L33.5815 387.759C32.7978 388.328 31.7433 387.562 32.0427 386.641L32.551 385.076C32.6848 384.664 32.5382 384.213 32.1877 383.958L30.857 382.991C30.0733 382.422 30.476 381.182 31.4448 381.182H33.0896C33.5228 381.182 33.9068 380.903 34.0407 380.491L34.5489 378.927Z" fill="#624AC6" fill-opacity="0.18"/>
<circle cx="286.5" cy="56.5" r="3.5" fill="#624AC6" fill-opacity="0.18"/>
<circle cx="687" cy="4" r="4" fill="#624AC6" fill-opacity="0.18"/>
<circle cx="206" cy="40" r="3" fill="#624AC6" fill-opacity="0.18"/>
<circle cx="563" cy="328" r="5" fill="#624AC6" fill-opacity="0.18"/>
<circle cx="354" cy="36" r="5" fill="#624AC6" fill-opacity="0.18"/>
<circle cx="431.5" cy="182.5" r="2.5" fill="#624AC6" fill-opacity="0.18"/>
<circle cx="677" cy="170" r="5" fill="#624AC6" fill-opacity="0.18"/>
<path d="M471.049 62.427C471.348 61.5057 472.652 61.5057 472.951 62.4271L474.919 68.4828C475.053 68.8948 475.437 69.1738 475.87 69.1738H482.237C483.206 69.1738 483.609 70.4134 482.825 70.9828L477.674 74.7254C477.323 74.9801 477.176 75.4314 477.31 75.8435L479.278 81.8992C479.577 82.8205 478.523 83.5866 477.739 83.0172L472.588 79.2746C472.237 79.0199 471.763 79.0199 471.412 79.2746L466.261 83.0172C465.477 83.5866 464.423 82.8205 464.722 81.8992L466.69 75.8435C466.824 75.4314 466.677 74.9801 466.326 74.7254L461.175 70.9828C460.391 70.4134 460.794 69.1738 461.763 69.1738H468.13C468.563 69.1738 468.947 68.8948 469.081 68.4828L471.049 62.427Z" fill="#624AC6" fill-opacity="0.18"/>
<path d="M370.549 89.9271C370.848 89.0057 372.152 89.0057 372.451 89.9271L372.959 91.4914C373.093 91.9034 373.477 92.1824 373.91 92.1824H375.555C376.524 92.1824 376.927 93.422 376.143 93.9914L374.812 94.9582C374.462 95.2128 374.315 95.6642 374.449 96.0762L374.957 97.6406C375.257 98.5619 374.202 99.328 373.418 98.7586L372.088 97.7918C371.737 97.5372 371.263 97.5372 370.912 97.7918L369.582 98.7586C368.798 99.328 367.743 98.5619 368.043 97.6406L368.551 96.0762C368.685 95.6642 368.538 95.2128 368.188 94.9582L366.857 93.9914C366.073 93.422 366.476 92.1824 367.445 92.1824H369.09C369.523 92.1824 369.907 91.9034 370.041 91.4914L370.549 89.9271Z" fill="#624AC6" fill-opacity="0.18"/>
<path d="M86.5489 133.927C86.8483 133.006 88.1517 133.006 88.4511 133.927L88.9593 135.491C89.0932 135.903 89.4772 136.182 89.9104 136.182H91.5552C92.524 136.182 92.9267 137.422 92.143 137.991L90.8123 138.958C90.4618 139.213 90.3152 139.664 90.449 140.076L90.9573 141.641C91.2567 142.562 90.2022 143.328 89.4185 142.759L88.0878 141.792C87.7373 141.537 87.2627 141.537 86.9122 141.792L85.5815 142.759C84.7978 143.328 83.7433 142.562 84.0427 141.641L84.551 140.076C84.6848 139.664 84.5382 139.213 84.1877 138.958L82.857 137.991C82.0733 137.422 82.476 136.182 83.4448 136.182H85.0896C85.5228 136.182 85.9068 135.903 86.0407 135.491L86.5489 133.927Z" fill="#624AC6" fill-opacity="0.18"/>
<path d="M6.54894 76.9271C6.8483 76.0057 8.1517 76.0057 8.45106 76.9271L8.95934 78.4914C9.09322 78.9034 9.47717 79.1824 9.9104 79.1824H11.5552C12.524 79.1824 12.9267 80.422 12.143 80.9914L10.8123 81.9582C10.4618 82.2128 10.3152 82.6642 10.449 83.0762L10.9573 84.6406C11.2567 85.5619 10.2022 86.328 9.41849 85.7586L8.08779 84.7918C7.7373 84.5372 7.2627 84.5372 6.91221 84.7918L5.58151 85.7586C4.7978 86.328 3.74332 85.5619 4.04267 84.6406L4.55095 83.0762C4.68483 82.6642 4.53817 82.2128 4.18768 81.9582L2.85698 80.9914C2.07326 80.422 2.47604 79.1824 3.44476 79.1824H5.0896C5.52283 79.1824 5.90678 78.9034 6.04066 78.4914L6.54894 76.9271Z" fill="#624AC6" fill-opacity="0.18"/>
<path d="M622.36 27.001C606.643 19.887 589.612 16.14 572.36 16.001C518.84 15.781 483.16 51.741 475.36 60.001" stroke="#624AC6" stroke-opacity="0.18" stroke-width="3" stroke-miterlimit="10"/>
<path d="M613.86 39.5012C607.21 35.6012 577.86 19.3712 539.86 27.5012C503.55 35.2612 483.72 60.0412 478.86 66.5012" stroke="#624AC6" stroke-opacity="0.18" stroke-width="3" stroke-miterlimit="10"/>
<path d="M603.86 53.5018C598.16 49.2818 576.46 34.2618 545.86 36.5018C509.54 39.1618 488.45 64.1118 484.86 68.5018" stroke="#624AC6" stroke-opacity="0.18" stroke-width="3" stroke-miterlimit="10"/>
<circle cx="498.5" cy="102.5" r="3.5" fill="#624AC6" fill-opacity="0.18"/>
<circle cx="507" cy="120" r="5" fill="#624AC6" fill-opacity="0.18"/>
<line x1="552.093" y1="158.664" x2="546.659" y2="165.838" stroke="#624AC6" stroke-opacity="0.18" stroke-width="3"/>
<line x1="574.246" y1="189.154" x2="575.585" y2="179.648" stroke="#624AC6" stroke-opacity="0.18" stroke-width="3"/>
<line x1="534.731" y1="219.232" x2="544.257" y2="220.426" stroke="#624AC6" stroke-opacity="0.18" stroke-width="3"/>
<line x1="559.339" y1="149.097" x2="553.905" y2="156.271" stroke="#624AC6" stroke-opacity="0.18" stroke-width="3"/>
<line x1="572.572" y1="201.035" x2="573.911" y2="191.529" stroke="#624AC6" stroke-opacity="0.18" stroke-width="3"/>
<line x1="522.824" y1="217.74" x2="532.35" y2="218.934" stroke="#624AC6" stroke-opacity="0.18" stroke-width="3"/>
<line x1="573.831" y1="129.966" x2="568.397" y2="137.14" stroke="#624AC6" stroke-opacity="0.18" stroke-width="3"/>
<line x1="569.226" y1="224.801" x2="570.564" y2="215.294" stroke="#624AC6" stroke-opacity="0.18" stroke-width="3"/>
<line x1="567.544" y1="235.748" x2="568.883" y2="226.242" stroke="#624AC6" stroke-opacity="0.18" stroke-width="3"/>
<line x1="566.585" y1="139.533" x2="561.151" y2="146.707" stroke="#624AC6" stroke-opacity="0.18" stroke-width="3"/>
<line x1="570.899" y1="212.918" x2="572.238" y2="203.412" stroke="#624AC6" stroke-opacity="0.18" stroke-width="3"/>
<line x1="510.918" y1="216.248" x2="520.443" y2="217.442" stroke="#624AC6" stroke-opacity="0.18" stroke-width="3"/>
<line x1="581.077" y1="120.402" x2="575.642" y2="127.576" stroke="#624AC6" stroke-opacity="0.18" stroke-width="3"/>
<line x1="566.387" y1="246.914" x2="567.725" y2="237.408" stroke="#624AC6" stroke-opacity="0.18" stroke-width="3"/>
<line x1="516.144" y1="206.451" x2="510.347" y2="214.103" stroke="#624AC6" stroke-opacity="0.18" stroke-width="3"/>
<line x1="523.39" y1="196.884" x2="517.593" y2="204.537" stroke="#624AC6" stroke-opacity="0.18" stroke-width="3"/>
<line x1="537.881" y1="177.753" x2="532.084" y2="185.406" stroke="#624AC6" stroke-opacity="0.18" stroke-width="3"/>
<line x1="530.636" y1="187.32" x2="524.839" y2="194.972" stroke="#624AC6" stroke-opacity="0.18" stroke-width="3"/>
<line x1="545.127" y1="168.189" x2="539.331" y2="175.841" stroke="#624AC6" stroke-opacity="0.18" stroke-width="3"/>
<line x1="582.613" y1="129.738" x2="583.952" y2="120.232" stroke="#624AC6" stroke-opacity="0.18" stroke-width="3"/>
<line x1="580.94" y1="141.621" x2="582.279" y2="132.115" stroke="#624AC6" stroke-opacity="0.18" stroke-width="3"/>
<line x1="577.593" y1="165.387" x2="578.932" y2="155.88" stroke="#624AC6" stroke-opacity="0.18" stroke-width="3"/>
<line x1="579.267" y1="153.504" x2="580.605" y2="143.998" stroke="#624AC6" stroke-opacity="0.18" stroke-width="3"/>
<line x1="575.919" y1="177.269" x2="577.258" y2="167.763" stroke="#624AC6" stroke-opacity="0.18" stroke-width="3"/>
<line x1="594.266" y1="226.695" x2="603.791" y2="227.889" stroke="#624AC6" stroke-opacity="0.18" stroke-width="3"/>
<line x1="582.359" y1="225.201" x2="591.884" y2="226.395" stroke="#624AC6" stroke-opacity="0.18" stroke-width="3"/>
<line x1="558.545" y1="222.217" x2="568.071" y2="223.411" stroke="#624AC6" stroke-opacity="0.18" stroke-width="3"/>
<line x1="570.452" y1="223.709" x2="579.978" y2="224.903" stroke="#624AC6" stroke-opacity="0.18" stroke-width="3"/>
<line x1="546.639" y1="220.725" x2="556.164" y2="221.919" stroke="#624AC6" stroke-opacity="0.18" stroke-width="3"/>
<line x1="613.428" y1="279.242" x2="614.74" y2="288.752" stroke="#624AC6" stroke-opacity="0.18" stroke-width="3"/>
<line x1="611.788" y1="267.356" x2="613.1" y2="276.865" stroke="#624AC6" stroke-opacity="0.18" stroke-width="3"/>
<line x1="608.508" y1="243.58" x2="609.82" y2="253.09" stroke="#624AC6" stroke-opacity="0.18" stroke-width="3"/>
<line x1="610.148" y1="255.469" x2="611.46" y2="264.979" stroke="#624AC6" stroke-opacity="0.18" stroke-width="3"/>
<line x1="606.868" y1="231.693" x2="608.18" y2="241.203" stroke="#624AC6" stroke-opacity="0.18" stroke-width="3"/>
<circle cx="584.795" cy="114.814" r="4.5" transform="rotate(37.1445 584.795 114.814)" fill="#624AC6" fill-opacity="0.18"/>
<circle cx="565.552" cy="252.674" r="4.4" transform="rotate(-171.984 565.552 252.674)" fill="#624AC6" fill-opacity="0.18"/>
<circle cx="506.22" cy="216.754" r="3" transform="rotate(37.1445 506.22 216.754)" fill="#624AC6" fill-opacity="0.18"/>
<circle cx="608.086" cy="226.883" r="3.2" transform="rotate(-82.8555 608.086 226.883)" fill="#624AC6" fill-opacity="0.18"/>
<circle cx="615.375" cy="293.227" r="3.2" transform="rotate(-7.85548 615.375 293.227)" fill="#624AC6" fill-opacity="0.18"/>
</svg>
