<svg width="9" height="8" viewBox="0 0 9 8" fill="none" xmlns="http://www.w3.org/2000/svg">
<path d="M1.15425 1.73602L3.52969 2.20334C3.56938 2.20903 3.60811 2.20727 3.64326 2.1984C3.67841 2.18953 3.70893 2.17371 3.73245 2.15208L5.14922 0.863314C5.18139 0.844081 5.22131 0.833466 5.26466 0.832581C5.30801 0.831696 5.35329 0.840566 5.39581 0.858274C5.43834 0.875983 5.47653 0.90187 5.50644 0.933264C5.53635 0.964658 5.55664 1.00035 5.56565 1.03673L6.16698 2.94668C6.17698 2.97934 6.19686 3.01118 6.22434 3.03905C6.25181 3.06692 6.28616 3.09 6.32427 3.10615L8.59761 4.05284C8.64197 4.07102 8.6816 4.09861 8.71124 4.13207C8.74088 4.16553 8.75926 4.20341 8.76438 4.2411C8.7695 4.27879 8.76101 4.31458 8.73992 4.34405C8.71883 4.37352 8.68621 4.39544 8.64587 4.40695L6.6773 5.14237C6.64934 5.1596 6.62887 5.18332 6.61724 5.21126C6.6056 5.2392 6.60316 5.27049 6.61062 5.30247L6.59117 7.19402C6.58929 7.22997 6.57504 7.26274 6.55 7.28881C6.52496 7.31488 6.49009 7.33326 6.44909 7.34197C6.4081 7.35067 6.36251 7.34935 6.31734 7.33819C6.27217 7.32703 6.22915 7.30644 6.19279 7.27862L4.32222 5.80036C4.29633 5.77199 4.26272 5.74863 4.22485 5.73286C4.18697 5.71708 4.14643 5.70956 4.10805 5.71117L1.83919 5.89356C1.79564 5.8963 1.74963 5.88901 1.70585 5.87231C1.66206 5.85561 1.6223 5.83022 1.59083 5.79887C1.55936 5.76751 1.53741 5.73138 1.52728 5.69436C1.51714 5.65734 1.51927 5.62087 1.53339 5.5888L2.34411 3.9433C2.36149 3.91861 2.36849 3.88875 2.36422 3.85732C2.35995 3.8259 2.34453 3.7942 2.31998 3.76621L0.940693 1.9811C0.920518 1.94851 0.910101 1.91371 0.910981 1.88049C0.91186 1.84728 0.923807 1.81672 0.945505 1.79186C0.967202 1.76699 0.99804 1.74879 1.0347 1.73898C1.07136 1.72917 1.11253 1.72812 1.15425 1.73602Z" fill="#FFDE63"/>
</svg>
