<svg width="12" height="12" viewBox="0 0 12 12" fill="none" xmlns="http://www.w3.org/2000/svg">
<path d="M1.57348 1.93351L4.7589 2.81756C4.81302 2.8287 4.86887 2.82711 4.92262 2.81326C4.97636 2.79941 5.02642 2.77354 5.06895 2.73749L7.62505 0.590298C7.67888 0.558656 7.74015 0.542002 7.80222 0.542074C7.8643 0.542146 7.92503 0.558932 7.97814 0.590699C8.03125 0.622465 8.07477 0.668028 8.1042 0.722684C8.13363 0.77734 8.14758 0.838974 8.14517 0.901373L8.20148 4.1821C8.20204 4.23818 8.21701 4.29324 8.24444 4.34179C8.27188 4.39035 8.3111 4.43098 8.35859 4.45992L11.198 6.15813C11.2535 6.19077 11.2984 6.2393 11.3266 6.29747C11.3547 6.35565 11.3651 6.42094 11.3566 6.48543C11.3481 6.54993 11.321 6.6107 11.2787 6.66021C11.2363 6.70972 11.1807 6.74592 11.1185 6.76408L8.00862 7.94701C7.96161 7.97539 7.92255 8.01511 7.89429 8.06236C7.86603 8.10961 7.84946 8.16291 7.84669 8.21775L7.02712 11.4444C7.0094 11.5057 6.97539 11.5611 6.92884 11.6046C6.88229 11.6482 6.82495 11.6783 6.76296 11.6917C6.70097 11.705 6.63662 11.7011 6.57701 11.6804C6.51739 11.6597 6.46477 11.623 6.42468 11.5742L4.38108 8.98372C4.3561 8.93438 4.31805 8.8933 4.27074 8.86501C4.22343 8.83671 4.16887 8.8224 4.11358 8.82374L0.807851 9.05213C0.744717 9.05522 0.68229 9.04109 0.626957 9.011C0.571624 8.98091 0.525661 8.93614 0.493993 8.88149C0.462325 8.82685 0.44621 8.7644 0.447287 8.70087C0.448363 8.63734 0.466666 8.57518 0.500178 8.52097L2.34299 5.743C2.37807 5.70152 2.40053 5.65083 2.40761 5.59705C2.41469 5.54327 2.40601 5.48862 2.38279 5.43998L1.16691 2.34387C1.15184 2.28752 1.15158 2.22777 1.16674 2.17113C1.1819 2.1145 1.21169 2.0628 1.25299 2.02116C1.29428 1.97952 1.34579 1.9496 1.40207 1.9342C1.45836 1.9188 1.51741 1.91851 1.57348 1.93351Z" fill="#FFDE63"/>
</svg>
