<svg width="189" height="141" viewBox="0 0 189 141" fill="none" xmlns="http://www.w3.org/2000/svg">
<path d="M124.175 3.87563C124.112 3.11917 123.852 2.39248 123.422 1.76776C122.991 1.14304 122.405 0.642022 121.721 0.314621C121.522 0.232371 121.317 0.163924 121.108 0.109777C120.304 -0.0121061 119.484 0.0493327 118.708 0.289424C117.932 0.529515 117.219 0.942067 116.624 1.49637C112.064 4.8695 107.919 8.77293 104.276 13.1247C88.137 32.6472 81.0741 45.0634 81.0741 45.0634C76.0242 55.18 71.8812 65.7258 68.6941 76.5766C66.508 76.7825 64.3344 77.1033 62.1819 77.5378C61.0493 77.7741 62.3076 77.5377 33.6941 89.3394C25.357 92.7744 15.5259 96.8081 6.48092 106.672C1.96631 111.588 -0.456267 115.889 0.0785649 120.49C0.235078 121.966 0.682537 123.396 1.39544 124.697C2.10835 125.998 3.07232 127.145 4.23121 128.069C7.61323 130.512 11.4043 128.999 16.0762 127.344C22.0065 125.249 28.2517 124.398 34.009 121.782C46.2 116.236 62.1976 117.449 81.4043 118.899C101.067 120.38 117.175 124.618 134.227 129.109C147.519 132.607 154.173 134.356 154.676 134.577C160.481 136.893 166.584 140.029 175.126 140.044C178.36 140.312 181.572 139.319 184.092 137.271C186.436 135.223 189.236 131.173 188.811 126.903C188.355 121.247 182.629 117.544 178.885 115.196C156.265 101.015 144.939 93.8775 139.827 91.8291C138.914 91.4667 137.609 90.9466 135.989 90.3479C134.132 85.9163 132.633 81.3429 131.506 76.6713C129.743 68.778 128.768 60.7288 128.595 52.6424C128.296 45.0005 127.762 37.3743 126.912 29.7796L124.175 3.87563Z" fill="#624AC6"/>
</svg>
