<svg width="19" height="18" viewBox="0 0 19 18" fill="none" xmlns="http://www.w3.org/2000/svg">
<path d="M17.2254 8.88822C15.1938 8.69099 13.2901 7.80684 11.8288 6.38177C10.3674 4.9567 9.43572 3.0759 9.18749 1.04989C9.18749 1.03666 9.18224 1.02397 9.17288 1.01461C9.16353 1.00526 9.15088 1 9.13765 1C9.12442 1 9.11169 1.00526 9.10234 1.01461C9.09298 1.02397 9.08772 1.03666 9.08772 1.04989C8.83949 3.0759 7.90779 4.9567 6.44644 6.38177C4.98509 7.80684 3.08155 8.69099 1.04993 8.88822C1.0367 8.88822 1.02397 8.89348 1.01461 8.90284C1.00526 8.91219 1 8.92488 1 8.93811C1 8.95134 1.00526 8.96403 1.01461 8.97338C1.02397 8.98274 1.0367 8.988 1.04993 8.988C3.08108 9.18649 4.98395 10.071 6.44505 11.4959C7.90615 12.9207 8.83825 14.8008 9.08772 16.8263C9.08772 16.8396 9.09298 16.8522 9.10234 16.8616C9.11169 16.8709 9.12442 16.8762 9.13765 16.8762C9.15088 16.8762 9.16353 16.8709 9.17288 16.8616C9.18224 16.8522 9.18749 16.8396 9.18749 16.8263C9.43697 14.8008 10.3691 12.9207 11.8302 11.4959C13.2913 10.071 15.1942 9.18649 17.2254 8.988C17.2386 8.988 17.2513 8.98274 17.2606 8.97338C17.27 8.96403 17.2752 8.95134 17.2752 8.93811C17.2752 8.92488 17.27 8.91219 17.2606 8.90284C17.2513 8.89348 17.2386 8.88822 17.2254 8.88822Z" stroke="#624AC6" stroke-width="2" stroke-miterlimit="10"/>
</svg>
