<svg width="166" height="138" viewBox="0 0 166 138" fill="none" xmlns="http://www.w3.org/2000/svg">
<path d="M81.8097 137.7C102.443 138.692 117.837 133.735 126.226 130.29C138.76 125.151 156.671 117.808 163.241 100.666C166.528 92.0769 165.434 85.059 163.241 71.0365C160.541 53.7698 157.459 34.0156 141.033 19.192C129.175 8.48495 115.938 5.39654 111.419 4.37745C92.9781 -0.477896 73.6049 -0.552965 55.1271 4.15937L54.2731 4.37745C49.7585 5.38319 36.5173 8.48495 24.6638 19.192C8.24235 34.0156 5.1511 53.7698 2.45571 71.0365C0.262927 85.059 -0.835689 92.0769 2.45571 100.666C9.02073 117.808 26.9188 125.142 39.4662 130.29C47.8682 133.735 63.2533 138.692 83.8868 137.7" fill="#191919"/>
</svg>
