<svg width="9" height="9" viewBox="0 0 9 9" fill="none" xmlns="http://www.w3.org/2000/svg">
<path d="M1.66016 1.34184L4.03112 1.99985C4.07139 2.00815 4.11297 2.00696 4.15297 1.99665C4.19298 1.98634 4.23023 1.96709 4.26189 1.94026L6.16444 0.342065C6.20451 0.318514 6.25011 0.306118 6.29631 0.306171C6.34251 0.306225 6.38772 0.318719 6.42725 0.342363C6.46678 0.366007 6.49917 0.399921 6.52108 0.440602C6.54299 0.481284 6.55336 0.527159 6.55157 0.573604L6.59349 3.01551C6.5939 3.05725 6.60504 3.09823 6.62546 3.13437C6.64589 3.1705 6.67508 3.20075 6.71043 3.22229L8.82385 4.4863C8.86519 4.51059 8.89857 4.54671 8.91954 4.59001C8.94052 4.63332 8.94819 4.68191 8.94187 4.72992C8.93555 4.77792 8.9154 4.82315 8.88388 4.86C8.85235 4.89685 8.81096 4.9238 8.76464 4.93732L6.44994 5.81779C6.41495 5.83892 6.38587 5.86848 6.36484 5.90365C6.34381 5.93882 6.33147 5.97849 6.32941 6.01931L5.71939 8.42097C5.7062 8.46657 5.68088 8.5078 5.64624 8.54023C5.61159 8.57266 5.56891 8.59505 5.52277 8.60499C5.47663 8.61494 5.42874 8.61202 5.38436 8.59662C5.33999 8.58122 5.30083 8.5539 5.27098 8.51758L3.7499 6.58944C3.7313 6.55271 3.70298 6.52213 3.66777 6.50107C3.63256 6.48001 3.59195 6.46936 3.55079 6.47035L1.09028 6.64035C1.04329 6.64265 0.996825 6.63214 0.95564 6.60974C0.914454 6.58734 0.880243 6.55402 0.856672 6.51334C0.833101 6.47267 0.821107 6.42619 0.821908 6.3789C0.822709 6.33161 0.836332 6.28535 0.861275 6.245L2.23291 4.17731C2.25902 4.14644 2.27574 4.1087 2.28101 4.06868C2.28628 4.02865 2.27982 3.98797 2.26254 3.95177L1.35754 1.64728C1.34632 1.60534 1.34613 1.56086 1.35741 1.51871C1.36869 1.47655 1.39087 1.43807 1.4216 1.40708C1.45234 1.37609 1.49068 1.35382 1.53257 1.34236C1.57446 1.33089 1.61842 1.33068 1.66016 1.34184Z" fill="#FFDE63"/>
</svg>
