<svg width="9" height="9" viewBox="0 0 9 9" fill="none" xmlns="http://www.w3.org/2000/svg">
<path d="M0.887489 3.1782L3.33597 2.93451C3.37652 2.92768 3.41485 2.91155 3.44842 2.88747C3.48199 2.8634 3.50977 2.83198 3.52959 2.79551L4.72563 0.617579C4.75447 0.581133 4.7925 0.553091 4.8356 0.536436C4.8787 0.519781 4.92536 0.515088 4.97077 0.52284C5.01618 0.530592 5.05864 0.5505 5.09377 0.580511C5.1289 0.610521 5.15516 0.64954 5.17028 0.693491L6.09221 2.95506C6.10769 2.99383 6.13289 3.02801 6.165 3.05432C6.1971 3.08063 6.23526 3.09828 6.276 3.10558L8.70346 3.52C8.75078 3.52771 8.79496 3.54931 8.83017 3.5821C8.86538 3.61489 8.8901 3.65742 8.90157 3.70447C8.91303 3.75151 8.9106 3.80097 8.89453 3.84672C8.87846 3.89248 8.84961 3.93256 8.81131 3.96192L6.97151 5.61969C6.94652 5.65204 6.9301 5.69011 6.92321 5.73051C6.91631 5.7709 6.91915 5.81235 6.93199 5.85115L7.23153 8.31091C7.23572 8.35818 7.22702 8.40578 7.20644 8.44854C7.18586 8.4913 7.15417 8.52761 7.11474 8.55356C7.07531 8.57952 7.02961 8.59412 6.98267 8.5958C6.93573 8.59748 6.88934 8.58617 6.84838 8.5631L4.73309 7.31531C4.70247 7.28779 4.66501 7.26952 4.62457 7.26261C4.58412 7.25571 4.54241 7.26046 4.5044 7.27627L2.27178 8.32434C2.2288 8.34347 2.18168 8.35047 2.13518 8.34447C2.08868 8.33848 2.04474 8.31978 2.00806 8.29038C1.97138 8.26098 1.94339 8.22198 1.92704 8.1776C1.91069 8.13322 1.90666 8.08516 1.91533 8.03853L2.44664 5.6148C2.45982 5.57657 2.46177 5.53535 2.45221 5.49612C2.44265 5.4569 2.42192 5.42131 2.39271 5.3938L0.715768 3.57239C0.690146 3.53734 0.673887 3.49594 0.669164 3.45256C0.664441 3.40918 0.671207 3.36528 0.688659 3.32528C0.70611 3.28527 0.733806 3.25064 0.768721 3.22481C0.803635 3.19898 0.844536 3.18289 0.887489 3.1782Z" fill="#FFDE63"/>
</svg>
