<svg width="96" height="77" viewBox="0 0 96 77" fill="none" xmlns="http://www.w3.org/2000/svg">
<path d="M0.837895 50.8039C11.3348 49.1974 19.9147 48.4497 25.7769 48.0626C36.4962 47.355 40.8062 47.6844 48.2208 45.5972C52.2238 44.4669 66.5992 40.4217 67.0751 33.4216C67.3731 29.0426 62.1336 24.895 60.9905 23.9917C56.6894 20.5828 53.7272 21.4462 50.1956 17.6012C49.0658 16.373 46.5928 13.6762 46.8775 10.3875C47.3579 4.90046 55.1727 2.10129 56.0311 1.80758C60.7859 0.16992 64.8334 1.26913 71.2695 2.65758C74.1653 3.21382 77.0099 4.01017 79.7737 5.03841C82.7302 6.16971 85.4307 7.88127 87.7162 10.0724C90.0016 12.2635 91.8259 14.89 93.0817 17.7971C93.0817 17.8416 93.1217 17.886 93.1395 17.9305C95.388 23.4616 96.0518 29.51 95.0565 35.3974C93.4375 44.7428 87.9755 50.6036 84.5062 54.235C78.5061 60.5053 72.497 63.2689 65.6518 66.4062C53.3402 72.0624 42.145 73.7534 33.7786 74.9639C29.6777 75.5557 26.2173 75.8539 23.8021 76.0586L0.837895 50.8039Z" fill="#191919"/>
</svg>
