<svg width="32" height="32" viewBox="0 0 32 32" fill="none" xmlns="http://www.w3.org/2000/svg">
<mask id="path-1-inside-1_182_31731" fill="white">
<path d="M31.8992 15.899C23.5934 15.0067 16.9964 8.38448 16.1031 0.0856101C16.0981 0.0613895 16.0851 0.0396799 16.0663 0.0240935C16.0476 0.00850707 16.0241 0 16 0C15.9758 0 15.9524 0.00850707 15.9337 0.0240935C15.9149 0.0396799 15.9019 0.0613895 15.8969 0.0856101C14.9807 8.40326 8.40659 15.0067 0.100802 15.899C0.0740714 15.899 0.0484288 15.9099 0.0295275 15.9293C0.0106262 15.9487 0 15.9749 0 16.0023C0 16.0297 0.0106262 16.056 0.0295275 16.0754C0.0484288 16.0948 0.0740714 16.1057 0.100802 16.1057C8.40659 16.998 15.0036 23.6202 15.8969 31.9144C15.9019 31.9386 15.9149 31.9603 15.9337 31.9759C15.9524 31.9915 15.9758 32 16 32C16.0241 32 16.0476 31.9915 16.0663 31.9759C16.0851 31.9603 16.0981 31.9386 16.1031 31.9144C17.0193 23.6014 23.5934 16.998 31.8992 16.1057C31.9259 16.1057 31.9516 16.0948 31.9705 16.0754C31.9894 16.056 32 16.0297 32 16.0023C32 15.9749 31.9894 15.9487 31.9705 15.9293C31.9516 15.9099 31.9259 15.899 31.8992 15.899Z"/>
</mask>
<path d="M31.8992 15.899C23.5934 15.0067 16.9964 8.38448 16.1031 0.0856101C16.0981 0.0613895 16.0851 0.0396799 16.0663 0.0240935C16.0476 0.00850707 16.0241 0 16 0C15.9758 0 15.9524 0.00850707 15.9337 0.0240935C15.9149 0.0396799 15.9019 0.0613895 15.8969 0.0856101C14.9807 8.40326 8.40659 15.0067 0.100802 15.899C0.0740714 15.899 0.0484288 15.9099 0.0295275 15.9293C0.0106262 15.9487 0 15.9749 0 16.0023C0 16.0297 0.0106262 16.056 0.0295275 16.0754C0.0484288 16.0948 0.0740714 16.1057 0.100802 16.1057C8.40659 16.998 15.0036 23.6202 15.8969 31.9144C15.9019 31.9386 15.9149 31.9603 15.9337 31.9759C15.9524 31.9915 15.9758 32 16 32C16.0241 32 16.0476 31.9915 16.0663 31.9759C16.0851 31.9603 16.0981 31.9386 16.1031 31.9144C17.0193 23.6014 23.5934 16.998 31.8992 16.1057C31.9259 16.1057 31.9516 16.0948 31.9705 16.0754C31.9894 16.056 32 16.0297 32 16.0023C32 15.9749 31.9894 15.9487 31.9705 15.9293C31.9516 15.9099 31.9259 15.899 31.8992 15.899Z" fill="#624AC6"/>
<path d="M31.8992 15.899L31.5787 18.8819L31.7385 18.899H31.8992V15.899ZM16.1031 0.0856101L19.0858 -0.235474L19.0703 -0.379763L19.0409 -0.521879L16.1031 0.0856101ZM15.8969 0.0856101L12.9591 -0.521879L12.9304 -0.383416L12.915 -0.242874L15.8969 0.0856101ZM0.100802 15.899V18.899H0.261495L0.421269 18.8819L0.100802 15.899ZM0 16.0023L3 16.0023L0 16.0023ZM0.100802 16.1057L0.421269 13.1228L0.261495 13.1057H0.100802V16.1057ZM15.8969 31.9144L12.9142 32.2356L12.9297 32.3798L12.9591 32.5219L15.8969 31.9144ZM16.1031 31.9144L19.0409 32.5219L19.0695 32.3835L19.085 32.243L16.1031 31.9144ZM31.8992 16.1057L31.8992 13.1057L31.7385 13.1057L31.5787 13.1228L31.8992 16.1057ZM32.2197 12.9162C25.3222 12.1751 19.8287 6.66582 19.0858 -0.235474L13.1203 0.406694C14.1641 10.1031 21.8646 17.8382 31.5787 18.8819L32.2197 12.9162ZM19.0409 -0.521879C18.9002 -1.20232 18.5329 -1.82703 17.9832 -2.28363L14.1495 2.33182C13.6373 1.90639 13.2959 1.3251 13.1652 0.6931L19.0409 -0.521879ZM17.9832 -2.28363C17.4314 -2.74196 16.7315 -3 16 -3V3C15.3168 3 14.6637 2.75897 14.1495 2.33182L17.9832 -2.28363ZM16 -3C15.2676 -3 14.5679 -2.74143 14.0168 -2.28363L17.8505 2.33182C17.3369 2.75844 16.684 3 16 3V-3ZM14.0168 -2.28363C13.4672 -1.82709 13.0998 -1.20242 12.9591 -0.521879L18.8348 0.6931C18.7041 1.3252 18.3626 1.90645 17.8505 2.33182L14.0168 -2.28363ZM12.915 -0.242874C12.1516 6.68717 6.67377 12.1756 -0.219665 12.9162L0.421269 18.8819C10.1394 17.8378 17.8098 10.1194 18.8789 0.414094L12.915 -0.242874ZM0.100802 12.899C-0.745269 12.899 -1.54205 13.244 -2.118 13.8345L2.17705 18.0241C1.63891 18.5758 0.893412 18.899 0.100802 18.899V12.899ZM-2.118 13.8345C-2.69071 14.4216 -3 15.2027 -3 16.0023L3 16.0023C3 16.7472 2.71196 17.4757 2.17705 18.0241L-2.118 13.8345ZM-3 16.0023C-3 16.802 -2.69074 17.583 -2.118 18.1702L2.17705 13.9806C2.71199 14.529 3 15.2575 3 16.0023L-3 16.0023ZM-2.118 18.1702C-1.54205 18.7606 -0.745269 19.1057 0.100802 19.1057V13.1057C0.893412 13.1057 1.63891 13.4289 2.17705 13.9806L-2.118 18.1702ZM-0.219665 19.0885C6.67823 19.8296 12.1714 25.3393 12.9142 32.2356L18.8797 31.5931C17.8358 21.9011 10.135 14.1664 0.421269 13.1228L-0.219665 19.0885ZM12.9591 32.5219C13.0998 33.2024 13.4672 33.8271 14.0168 34.2836L17.8505 29.6682C18.3626 30.0935 18.7041 30.6748 18.8348 31.3069L12.9591 32.5219ZM14.0168 34.2836C14.567 34.7406 15.2664 35 16 35V29C16.6853 29 17.3379 29.2423 17.8505 29.6682L14.0168 34.2836ZM16 35C16.7327 35 17.4324 34.7412 17.9832 34.2836L14.1495 29.6682C14.6628 29.2418 15.3155 29 16 29V35ZM17.9832 34.2836C18.5329 33.827 18.9002 33.2023 19.0409 32.5219L13.1652 31.3069C13.2959 30.6749 13.6373 30.0936 14.1495 29.6682L17.9832 34.2836ZM19.085 32.243C19.8483 25.318 25.3258 19.8292 32.2197 19.0885L31.5787 13.1228C21.861 14.1669 14.1904 21.8848 13.1211 31.5857L19.085 32.243ZM31.8992 19.1057C32.7453 19.1057 33.5421 18.7606 34.118 18.1702L29.8229 13.9806C30.3611 13.429 31.1066 13.1057 31.8992 13.1057L31.8992 19.1057ZM34.118 18.1702C34.6907 17.5831 35 16.802 35 16.0023H29C29 15.2575 29.288 14.529 29.8229 13.9806L34.118 18.1702ZM35 16.0023C35 15.2026 34.6907 14.4216 34.118 13.8345L29.8229 18.0241C29.2881 17.4757 29 16.7473 29 16.0023H35ZM34.118 13.8345C33.5421 13.2441 32.7453 12.899 31.8992 12.899V18.899C31.1066 18.899 30.3611 18.5757 29.8229 18.0241L34.118 13.8345Z" fill="#624AC6" mask="url(#path-1-inside-1_182_31731)"/>
</svg>
